<svg xmlns="http://www.w3.org/2000/svg" viewBox="0 0 130.43 183.42"><title>candle_2</title><g id="Layer_2" data-name="Layer 2"><g id="Layer_1-2" data-name="Layer 1"><path d="M28.67,164.94c5.28-.28,10.57-.57,15.86-.84a.87.87,0,0,0,.75-.4A102.66,102.66,0,0,0,50.92,155a19.21,19.21,0,0,0,1.44-3.36,5.56,5.56,0,0,0,0-3.58,12.15,12.15,0,0,1-.69-6.4,1.94,1.94,0,0,1,.4-1.06A5.72,5.72,0,0,0,53.38,137a61.32,61.32,0,0,0-.58-18.49,5.09,5.09,0,0,0-.59-1.76,8.84,8.84,0,0,1-1-6.44,10.91,10.91,0,0,0-.48-5.68c-.89-2.43-.69-5-.48-7.5a22.29,22.29,0,0,1,.92-4.79A4.52,4.52,0,0,1,51.69,91c1.26-1.71,1.3-3.7,1.38-5.68A65.71,65.71,0,0,0,52.64,74a3.34,3.34,0,0,0-.19-1c-.7-1.63-.05-3,.9-4.22a14.25,14.25,0,0,1,3.21-3c.66-.47,1.34-.92,2-1.33C61,63.07,61.06,63,60.4,60.29a15.77,15.77,0,0,0-1-3,3.51,3.51,0,0,0-1.6-1.76,4.87,4.87,0,0,1-2-2.47,21.15,21.15,0,0,1-1.67-7c-.55-5.4.81-10.44,2.67-15.41,1-2.6,1.79-5.24,2.77-7.82a20.51,20.51,0,0,0,1-10.18c-.22-1.58-.4-3.18-.56-4.77,0-.37-.24-1,.21-1.07s.46.52.61.85a43.75,43.75,0,0,1,2.24,7,167.42,167.42,0,0,1,4.2,22.88,31.28,31.28,0,0,1-.41,10.61,13.43,13.43,0,0,1-3.45,6.54c-2.2,2.19-1.88,4.62-1.11,7.19.16.53.56.53,1,.33.87-.43,1.74-.88,2.62-1.3a22.44,22.44,0,0,1,5.68-1.94,9.23,9.23,0,0,1,2-.11,3,3,0,0,1,3.12,3.75,9.48,9.48,0,0,1-1,3.33,18.47,18.47,0,0,0-1.86,7.85c-.55,8.66-.36,17.32-.36,26q0,15.5,0,31a29.27,29.27,0,0,0,.52,6.4A2.3,2.3,0,0,0,75.37,139a1.54,1.54,0,0,1,.76,1,11.85,11.85,0,0,1,.61,6.32,1.64,1.64,0,0,1-.37.88,2.15,2.15,0,0,0-.52,2.41,31.15,31.15,0,0,0,6,12.16,3.56,3.56,0,0,0,2.63,1.39c4.91.4,9.81.67,14.7-.26a9.85,9.85,0,0,0,3.28-1.14,2.05,2.05,0,0,0,1-2.93c-.34-.92-.62-1.85-1-2.75a12.74,12.74,0,0,1-.3-9.29c1.9-6.13,5.47-10.81,11.64-13,6.6-2.35,12.59-.8,18.07,3.34,3.66,2.77,5.37,6.64,6.29,11a18.62,18.62,0,0,1,.09,8.56,19.24,19.24,0,0,1-4.66,8.1c-1.15,1.28-2.5,2.33-3.72,3.53a4.53,4.53,0,0,1-1.79.94,34.8,34.8,0,0,1-12,2.15c-.95,0-1.9-.12-2.85-.17a4.54,4.54,0,0,0-4.15,2.11,31,31,0,0,0-2.47,4.39c-.83,1.68-1.69,3.34-2.56,5-1.9,3.63-4.92,5.44-8.93,6A158.52,158.52,0,0,1,78,189.82c-15,.4-30,.53-45,.19-2.47,0-4.94-.21-7.41-.33a5,5,0,0,1-2.51-.83A24.25,24.25,0,0,1,16.55,182a39.7,39.7,0,0,0-4.72-5.7A26.13,26.13,0,0,0,9.12,174c-.95-.72-1-1-.49-2a10.46,10.46,0,0,1,.49-.94c1-1.66,2-3.31,2.93-5a.9.9,0,0,1,.9-.52C18.2,165.54,23.43,165.17,28.67,164.94ZM67.3,109.48c.1-12.92,0-23.08.33-33.23a29.25,29.25,0,0,1,.5-5,2.6,2.6,0,0,1,1.41-2c.55-.26.85-.16.85.47s0,1.14-.08,1.7c-.28,3.3-.58,6.6-.55,9.92q.09,14.67.15,29.33c0,8.44,0,16.89.34,25.33a23.39,23.39,0,0,0,.22,2.51c0,.33.08.77.56.78s.58-.44.64-.8a12.36,12.36,0,0,0,.2-1.62c.25-3.33.24-6.67.25-10q.06-27.59,0-55.16a10.23,10.23,0,0,1,1.44-6A6,6,0,0,0,74.54,62c-.12-2-1.42-2.83-3.3-2a23.77,23.77,0,0,1-2.64,1A15.3,15.3,0,0,0,64,63.43a3.35,3.35,0,0,0-1,1,4.15,4.15,0,0,1-1.56,1.5,39.64,39.64,0,0,1-3.52,2,34,34,0,0,0-3.45,2c-1.61,1.12-1.56,1.71.19,2.55,1.29.63,1.46,1,1.18,2.38a66.3,66.3,0,0,0-1.58,12,12.83,12.83,0,0,1-.9,4.53,20.11,20.11,0,0,0-1.41,5.25,13.12,13.12,0,0,0,.75,7.2c1,2.05,2.57,2.34,4.23.81.46-.43.88-.9,1.35-1.3s.67-.69,1.13-.44.33.77.31,1.19a5,5,0,0,1-3.74,4.06,16,16,0,0,1-2.09.33,1.09,1.09,0,0,0-1.07.84,9.08,9.08,0,0,0,.19,5.29c.86,2.09,2.72,2.33,4.07.52.43-.59.76-1.25,1.17-1.86.15-.23.33-.63.65-.5s.24.56.19.88a7.44,7.44,0,0,1-1.83,3.85,6.72,6.72,0,0,0-1.64,4.71c0,3.75-.08,7.5-.08,11.24a20.48,20.48,0,0,0,.25,4.14,2,2,0,0,0,2,1.83,16.67,16.67,0,0,0,1.87,0c2.28-.13,4.55-.31,6.83-.4.69,0,.83-.24.83-.9C67.29,127.68,67.3,117.2,67.3,109.48ZM14.75,174.21a3.36,3.36,0,0,0,.15.45c1.84,2.49,3.65,5,5.52,7.46a11,11,0,0,0,6.29,4.09,27,27,0,0,0,4.08.72,120,120,0,0,0,13.67.45c11.68-.12,23.34-.52,35-.84,4.7-.14,9.39-.17,14.08-.58,3.21-.28,5.72-1.56,7.18-4.54.22-.44.49-.85.72-1.28a31.11,31.11,0,0,1,3.93-6,1.22,1.22,0,0,0,.44-1.06C75.5,173.17,45.18,173.12,14.75,174.21ZM66,169.6c1.52,0,3,0,4.56,0q20.81-.69,41.61-1.42a72.19,72.19,0,0,0,8.46-.43,17.31,17.31,0,0,0,10.87-6.33A15.77,15.77,0,0,0,130,139.17c-4.46-3.81-9.65-4.44-15.16-2.95a14.22,14.22,0,0,0-10.35,9.8,17.11,17.11,0,0,0,1.74,14.41c.37.63.79,1.23,1.14,1.88.45.84.27,1.3-.65,1.61a11.41,11.41,0,0,1-3,.51c-4.47.37-8.95.4-13.43.47-20.91.33-41.83.35-62.72,1.33q-5.89.28-11.79.65a6.29,6.29,0,0,0-3.42,1.18A3.06,3.06,0,0,0,11.08,170c-.09.45,0,.65.52.66,1.12,0,2.23.1,3.34.11Q40.49,170.84,66,169.6ZM46.91,164a2.3,2.3,0,0,0,1.21.23c1.38,0,2.77,0,4.15,0,6-.08,12-.15,18-.62.63-.05.84-.27.62-.87s-.28-1-.47-1.47c-.49-1.17-1-2.33-1.53-3.5a56.59,56.59,0,0,1-2.55-8.05c-.36-1.38-.4-1.39-1.8-1.4-2.77,0-5.53,0-8.3,0a1.94,1.94,0,0,0-2,1.29c-.51,1.09-.8,2.24-1.22,3.36a37.84,37.84,0,0,1-4.33,8.17C48.09,162.08,47.52,163.06,46.91,164Zm17.2-22.57v-.31c-3,0-6,0-9,0-.69,0-1.59-.33-2,.13s-.08,1.35-.14,2.05a1.61,1.61,0,0,0,.94,1.65,8.74,8.74,0,0,0,2.09.88,43.4,43.4,0,0,0,14.35,1.4,11.16,11.16,0,0,0,3.65-.71,1.93,1.93,0,0,0,1.31-1.69,21.72,21.72,0,0,0,0-2.68c0-.55-.18-.75-.75-.75C71.05,141.46,67.58,141.45,64.11,141.45ZM79.69,163.7c.59,0,.85-.34.52-.94a27.8,27.8,0,0,0-1.54-2.49,35,35,0,0,1-4.2-8c-.38-1-.81-2-1.26-3-.23-.51-.51-1.21-1.19-1s-.43.92-.35,1.43a28.7,28.7,0,0,0,4.63,11.77,5.46,5.46,0,0,0,2.24,1.85A3.29,3.29,0,0,0,79.69,163.7Z" transform="translate(-8.3 -6.79)"/><path d="M109.75,151.75a10.14,10.14,0,0,1,9.68-10.44,10,10,0,0,1,10.12,9.53c.21,5.76-4.17,10.87-9.56,10.95A10,10,0,0,1,109.75,151.75Zm2.31-.26a7.86,7.86,0,0,0,7.59,7.81,7.51,7.51,0,0,0,7.43-7.68c0-4.52-3.31-8.08-7.46-8C115.65,143.61,112.05,147.38,112.06,151.49Z" transform="translate(-8.3 -6.79)"/></g></g></svg>