<svg xmlns="http://www.w3.org/2000/svg" viewBox="0 0 55.9 249.21"><title>candle_1</title><g id="Layer_2" data-name="Layer 2"><g id="Layer_1-2" data-name="Layer 1"><path d="M29.29,5.18c.35.52.65,1,.93,1.4a15,15,0,0,1,2.18,9.05A28.83,28.83,0,0,1,30,25a85.21,85.21,0,0,1-4.66,9.13c-1.85,3.24-3.79,6.42-5.61,9.68a64.89,64.89,0,0,0-4.18,8.74,24.47,24.47,0,0,0-1.31,4.85,13.61,13.61,0,0,0,.49,6.49A11.79,11.79,0,0,0,17.31,68a23.86,23.86,0,0,0,1.94,1.82A21,21,0,0,1,22,72.75a3.11,3.11,0,0,1-1,4.57,2.22,2.22,0,0,1-2,.07,8.57,8.57,0,0,1-2.93-1.94c-1-1-2-2-2.87-3.12a17.32,17.32,0,0,1-3.93-7.89,18.46,18.46,0,0,1,.18-8A34.74,34.74,0,0,1,13,47.66c1.58-2.86,3.37-5.59,5.21-8.29,2.09-3,4.25-6.06,6.25-9.17a59.92,59.92,0,0,0,4.57-8.12A24.44,24.44,0,0,0,31,15.78,14.17,14.17,0,0,0,28.39,4.92a20.87,20.87,0,0,0-3.24-3.53A3.33,3.33,0,0,1,24.73,1a.86.86,0,0,1,.43.23,105.34,105.34,0,0,1,9.22,7.65q1.92,1.77,3.72,3.66a30.8,30.8,0,0,1,6.2,9.73,83.11,83.11,0,0,1,4.53,15.21,67.88,67.88,0,0,1,1,7.11A50.61,50.61,0,0,1,50,52.15a32.27,32.27,0,0,1-3.73,13.79,25.29,25.29,0,0,1-1.85,2.74,55.37,55.37,0,0,1-9,9.61,3,3,0,0,1-4.7-1.45,2,2,0,0,1,.18-1.66,17.1,17.1,0,0,1,2.32-3.09c1-1.14,2.19-2.17,3.32-3.2l1.75-1.62a21.29,21.29,0,0,0,5.17-7.4,31.23,31.23,0,0,0,2.26-8.34,47.75,47.75,0,0,0,.2-10A84.81,84.81,0,0,0,42.6,24,32.68,32.68,0,0,0,36,12.09c-2-2.41-4.27-4.61-6.51-6.81Z" transform="translate(-0.18 -0.97)"/><path d="M3.84,237.93a2.54,2.54,0,0,1,0-.78c.2-2.86.24-5.72.28-8.58.18-13.81,0-27.62-.18-41.42q-.09-8.57-.23-17.12-.18-11.72-.42-23.42c-.07-3.86-.14-7.71-.23-11.57q-.19-8.86-.42-17.72-.11-4-.22-8.07C2.3,104.84,2.17,100.42,2,96c-.1-2.47-.19-4.94-.32-7.41-.09-1.94-.19-3.88-.44-5.81,0-.21-.06-.42-.1-.68a1,1,0,0,1,.46.62,11.59,11.59,0,0,1,.55,2c.34,1.72.56,3.46.77,5.21.28,2.39.5,4.79.7,7.19.16,1.81.28,3.63.41,5.44.15,2.25.3,4.5.43,6.75q.16,2.85.31,5.68.23,4.88.44,9.75c.08,1.78.14,3.57.21,5.36q.31,8.84.53,17.67c.1,3.79.17,7.59.24,11.38.21,11.61.31,23.23.24,34.85q0,9.18-.28,18.38c-.09,3.4-.2,6.8-.37,10.21-.16,3-.34,6.08-.65,9.11a37.41,37.41,0,0,1-.72,4.84c-.08.32-.18.63-.28.94A.83.83,0,0,1,3.84,237.93Z" transform="translate(-0.18 -0.97)"/><path d="M47.55,126.47a3.67,3.67,0,0,1,0,1c-.32,2.86-.51,5.73-.64,8.6-.37,8.48-.28,17-.14,25.43.06,3.81.16,7.62.28,11.42q.19,6.35.46,12.68c.14,3.28.29,6.56.47,9.84q.3,5.63.65,11.27.24,4,.56,7.95c.23,2.93.47,5.86.75,8.79.3,3.26.67,6.52,1.2,9.76.16,1,.38,2,.58,3.07,0,.12.08.23,0,.37-.21,0-.28-.23-.37-.38a8.9,8.9,0,0,1-.78-1.79,43.47,43.47,0,0,1-1.48-5.87c-.69-3.47-1.19-7-1.62-10.5q-.59-4.77-1-9.55-.42-4.55-.75-9.11c-.25-3.52-.46-7-.65-10.57-.55-10.56-.81-21.13-.71-31.71q.07-6.21.38-12.4c.15-2.75.34-5.5.65-8.23a56.93,56.93,0,0,1,1.2-7.45,12.65,12.65,0,0,1,.65-2.09A.94.94,0,0,1,47.55,126.47Z" transform="translate(-0.18 -0.97)"/><path d="M10.31,84.44a.78.78,0,0,1,.64-.19,8,8,0,0,1,7.21,3.86,12.92,12.92,0,0,1,1.71,4.61,28.83,28.83,0,0,1,.38,6.22,62.48,62.48,0,0,1-.54,6.41c-.41,3.3-.95,6.58-1.41,9.88a47.54,47.54,0,0,0-.45,5.06,12.66,12.66,0,0,0,.24,3,3.54,3.54,0,0,0,.37,1,1.76,1.76,0,0,0,2,.8,1.21,1.21,0,0,0,.56-.41,3.56,3.56,0,0,0,.62-1.19,13.25,13.25,0,0,0,.54-3.12,65.4,65.4,0,0,0,0-7.92c-.2-4.47-.53-8.94-.4-13.42A31.85,31.85,0,0,1,22.57,92a12.88,12.88,0,0,1,1.22-3.21,6.9,6.9,0,0,1,1.68-2,5.47,5.47,0,0,1,5.11-.9.59.59,0,0,1,.41.29,5.22,5.22,0,0,1-.93.11,8.21,8.21,0,0,0-1.48.19,4.7,4.7,0,0,0-3.11,2.26,10.11,10.11,0,0,0-1.13,3,27.85,27.85,0,0,0-.54,5.46c0,2.29.08,4.57.23,6.85.2,2.89.4,5.77.61,8.66a64.66,64.66,0,0,1,.16,7.5,16.76,16.76,0,0,1-.63,4,7.91,7.91,0,0,1-.65,1.49,4.22,4.22,0,0,1-6.86.61,6.31,6.31,0,0,1-1.27-3.16,18.8,18.8,0,0,1-.05-4.56c.26-3.22.87-6.4,1.41-9.58.46-2.75.93-5.49,1.22-8.26a36.06,36.06,0,0,0,.21-6.65,15.08,15.08,0,0,0-.82-4.1,7.66,7.66,0,0,0-4.75-4.8c-.57-.21-1.15-.37-1.73-.56Z" transform="translate(-0.18 -0.97)"/><path d="M51.93,81.07a.75.75,0,0,1,.21.47,17.79,17.79,0,0,1,.24,2.92c.06,2.38-.07,4.76-.2,7.13-.09,1.71-.22,3.42-.32,5.12-.12,1.9-.24,3.79-.33,5.69a52.73,52.73,0,0,0,0,7.22,26.18,26.18,0,0,0,1.16,5.32c.71,2.28,1.57,4.51,2.33,6.78a19,19,0,0,1,.92,3.71,7.24,7.24,0,0,1,0,2.5,4,4,0,0,1-2.34,2.8,2.85,2.85,0,0,1-3.14-.62,8.53,8.53,0,0,1-1.18-1.44A18.14,18.14,0,0,1,47.52,125a9.83,9.83,0,0,1-.46-3.41c0-1.24.16-2.48.26-3.72a11.06,11.06,0,0,0-.5-4.78c0-.15-.08-.3-.12-.45a.3.3,0,0,1,0-.13c.14-.08.21,0,.29.09a4.09,4.09,0,0,1,.82,1.12,8.27,8.27,0,0,1,.85,3c.13,1.13.09,2.26.12,3.4a16.28,16.28,0,0,0,.25,2.87,6.8,6.8,0,0,0,.67,1.93c.42.76.8,1.55,1.28,2.28a4.36,4.36,0,0,0,1.16,1.26.48.48,0,0,0,.63,0,2,2,0,0,0,.81-1.92,12.56,12.56,0,0,0-.51-2.51c-.57-1.88-1.28-3.7-1.94-5.54a47.42,47.42,0,0,1-1.71-5.71,28.18,28.18,0,0,1-.53-7.1c.09-2.37.27-4.75.53-7.11s.56-4.85.89-7.27c.3-2.21.58-4.43.88-6.65.13-1,.25-2,.46-3A1,1,0,0,1,51.93,81.07Z" transform="translate(-0.18 -0.97)"/><path d="M28.39,250.18a39,39,0,0,1-14.81-2.8,22.9,22.9,0,0,1-6.64-4.06A13.54,13.54,0,0,1,4.85,241a4.72,4.72,0,0,1-.49-.84c-.06-.15-.23-.34-.09-.47s.31.07.44.15.44.34.66.52a28.21,28.21,0,0,0,4.27,2.91,33.67,33.67,0,0,0,9.08,3.27,44.17,44.17,0,0,0,11.81.92,35.15,35.15,0,0,0,10.87-2.13,20.47,20.47,0,0,0,6.66-3.93,17.2,17.2,0,0,0,2.6-3.05c.19-.28.39-.56.6-.83.05-.07.12-.16.22-.13s.1.15.1.24a3.18,3.18,0,0,1-.17,1,11,11,0,0,1-2.26,4,17.94,17.94,0,0,1-5.47,4.2,29.86,29.86,0,0,1-8.83,2.86A45.32,45.32,0,0,1,28.39,250.18Z" transform="translate(-0.18 -0.97)"/><path d="M33.4,52.18a5.57,5.57,0,0,1,.82,2.23A9.46,9.46,0,0,1,33.71,59a27.56,27.56,0,0,1-1.79,4c-.84,1.62-1.71,3.21-2.41,4.9a13.81,13.81,0,0,0-1,3.52,9.66,9.66,0,0,0,.15,3.43,4.65,4.65,0,0,0,.56,1.22,3.86,3.86,0,0,1,.46,2.7,3.26,3.26,0,0,1-4,2.4,3.76,3.76,0,0,1-2.21-2.38,4.37,4.37,0,0,1-.22-1.24,24.9,24.9,0,0,1,.09-4.14,15,15,0,0,1,1.85-5.43,26.13,26.13,0,0,1,2.72-4c1-1.27,2.1-2.53,3.13-3.82a14.65,14.65,0,0,0,2-3.2,7.16,7.16,0,0,0,.44-4.78S33.41,52.22,33.4,52.18Z" transform="translate(-0.18 -0.97)"/><path d="M43.09,72.7c.71,0,1.41,0,2.12,0a12.17,12.17,0,0,1,3.34.56,6.28,6.28,0,0,1,2.6,1.6,4.36,4.36,0,0,1,1.28,3.29,3.44,3.44,0,0,1-.26,1.13,8,8,0,0,1-2.55,3.49,15.55,15.55,0,0,1-5,2.6,23.63,23.63,0,0,1-7.74,1.2A14.89,14.89,0,0,1,32.73,86a3,3,0,0,1-.64-.27c-.09,0-.2-.11-.2-.23s.15-.19.26-.23a4.48,4.48,0,0,1,.73-.14A58.58,58.58,0,0,0,40.34,84a27.08,27.08,0,0,0,6-2.17,9,9,0,0,0,2-1.32,5.06,5.06,0,0,0,1.48-2,2,2,0,0,0-.35-2.18,5,5,0,0,0-1.37-1.1,25.54,25.54,0,0,0-3.64-1.78,8.3,8.3,0,0,1-1.39-.64Z" transform="translate(-0.18 -0.97)"/><path d="M13.28,73.22a1.45,1.45,0,0,1-.65.32c-1.35.43-2.73.73-4.1,1.1A13.81,13.81,0,0,0,4,76.88a2.7,2.7,0,0,0-1.21,2A2.39,2.39,0,0,0,2.93,80a4.27,4.27,0,0,0,2.7,2.53c1,.34,2,.64,3.06,1A12.81,12.81,0,0,1,9.91,84c.1,0,.21.06.26.22a2.58,2.58,0,0,1-1.27.27,15.32,15.32,0,0,1-5.06-.94A6.09,6.09,0,0,1,.66,80.84a3.41,3.41,0,0,1-.17-3.18A5.62,5.62,0,0,1,2.88,75c.21-.13.44-.23.66-.35A11.44,11.44,0,0,1,8,73.27a29.66,29.66,0,0,1,3.77-.19A9.42,9.42,0,0,1,13.28,73.22Z" transform="translate(-0.18 -0.97)"/></g></g></svg>