<svg xmlns="http://www.w3.org/2000/svg" viewBox="0 0 219.67 219.68"><defs><style>.cls-1,.cls-10,.cls-2,.cls-3,.cls-4,.cls-5,.cls-6,.cls-7,.cls-8,.cls-9{font-size:32.07px;font-family:NHaasGroteskDSPro-65Md, Neue Haas Grotesk Display Pro;font-weight:500;}.cls-2{fill:#c1272d;}.cls-3{fill:#ed1c24;}.cls-4{fill:#f15a24;}.cls-5{fill:#f7931e;}.cls-6{fill:#fbb03b;}.cls-7{fill:#22b573;}.cls-8{fill:#00a99d;}.cls-9{fill:#29abe2;}.cls-10{fill:#0071bc;}</style></defs><title>color-logo</title><g id="Layer_2" data-name="Layer 2"><g id="Layer_1-2" data-name="Layer 1"><text class="cls-1" transform="translate(43.96 120.25) rotate(-86.27)">W</text><text class="cls-1" transform="matrix(0.52, -0.85, 0.85, 0.52, 49.16, 84.36)">Y</text><text class="cls-1" transform="matrix(0.81, -0.58, 0.58, 0.81, 64.72, 62.15)">L</text><text class="cls-1" transform="translate(85.54 48.74) rotate(-13.03)">D</text><text class="cls-1" transform="translate(113.6 44) rotate(12.88)">C</text><text class="cls-1" transform="matrix(0.8, 0.6, -0.6, 0.8, 140.7, 51.66)">A</text><text class="cls-1" transform="matrix(0.48, 0.88, -0.88, 0.48, 162.07, 69.71)">R</text><text class="cls-1" transform="translate(173.99 94.78) rotate(86.11)">D</text><text class="cls-2" transform="translate(173.86 122.99) rotate(107.3)">*</text><text class="cls-3" transform="translate(166.76 141.95) rotate(125.06)">*</text><text class="cls-4" transform="matrix(-0.8, 0.6, -0.6, -0.8, 154.21, 157.84)">*</text><text class="cls-5" transform="translate(137.42 169.12) rotate(160.77)">*</text><text class="cls-6" transform="translate(117.95 174.71) rotate(178.45)">*</text><text class="cls-7" transform="translate(97.74 174.1) rotate(-163.63)">*</text><text class="cls-8" transform="matrix(-0.83, -0.56, 0.56, -0.83, 78.66, 167.3)">*</text><text class="cls-9" transform="matrix(-0.62, -0.79, 0.79, -0.62, 62.58, 155.02)">*</text><text class="cls-10" transform="matrix(-0.34, -0.94, 0.94, -0.34, 51.02, 138.4)">*</text></g></g></svg>