<svg xmlns="http://www.w3.org/2000/svg" viewBox="0 0 219.72 219.72"><defs><style>.cls-1{font-size:32.07px;font-family:NHaasGroteskDSPro-65Md, Neue Haas Grotesk Display Pro;font-weight:500;}.cls-10,.cls-2,.cls-3,.cls-4,.cls-5,.cls-6,.cls-7,.cls-8,.cls-9{font-size:15px;font-family:Wingdings-Regular, Wingdings;}.cls-2{fill:#c1272d;}.cls-3{fill:#ed1c24;}.cls-4{fill:#f15a24;}.cls-5{fill:#f7931e;}.cls-6{fill:#fbb03b;}.cls-7{fill:#22b573;}.cls-8{fill:#00a99d;}.cls-9{fill:#29abe2;}.cls-10{fill:#0071bc;}</style></defs><title>logo2</title><g id="Layer_2" data-name="Layer 2"><g id="Layer_1-2" data-name="Layer 1"><text class="cls-1" transform="translate(44 120.25) rotate(-86.27)">W</text><text class="cls-1" transform="translate(49.2 84.36) rotate(-58.38)">Y</text><text class="cls-1" transform="translate(64.76 62.15) rotate(-35.58)">L</text><text class="cls-1" transform="translate(85.58 48.74) rotate(-13.03)">D</text><text class="cls-1" transform="matrix(0.97, 0.22, -0.22, 0.97, 113.64, 44)">C</text><text class="cls-1" transform="translate(140.74 51.66) rotate(37.15)">A</text><text class="cls-1" transform="translate(162.11 69.71) rotate(61.6)">R</text><text class="cls-1" transform="translate(174.03 94.78) rotate(86.11)">D</text><text class="cls-2" transform="translate(174.1 123.2) rotate(109.23)">*</text><text class="cls-3" transform="translate(167.24 141.63) rotate(126.4)">*</text><text class="cls-4" transform="translate(155.24 157.23) rotate(143.63)">*</text><text class="cls-5" transform="translate(139.18 168.55) rotate(160.97)">*</text><text class="cls-6" transform="matrix(-1, 0.03, -0.03, -1, 120.44, 174.59)">*</text><text class="cls-7" transform="matrix(-0.96, -0.27, 0.27, -0.96, 100.8, 174.83)">*</text><text class="cls-8" transform="translate(81.94 169.2) rotate(-147.36)">*</text><text class="cls-9" transform="translate(65.6 158.25) rotate(-130.16)">*</text><text class="cls-10" transform="translate(53.23 142.97) rotate(-112.81)">*</text></g></g></svg>