<svg xmlns="http://www.w3.org/2000/svg" viewBox="0 0 220.86 220.87"><defs><style>.cls-1{font-size:32.07px;stroke:#000;stroke-miterlimit:10;font-family:NHaasGroteskDSPro-65Md, Neue Haas Grotesk Display Pro;font-weight:500;}</style></defs><title>star-logo</title><g id="Layer_2" data-name="Layer 2"><g id="Layer_1-2" data-name="Layer 1"><text className="cls-1" transform="translate(44.56 120.84) rotate(-86.27)">W</text><text className="cls-1" transform="matrix(0.52, -0.85, 0.85, 0.52, 49.75, 84.96)">Y</text><text className="cls-1" transform="matrix(0.81, -0.58, 0.58, 0.81, 65.31, 62.74)">L</text><text className="cls-1" transform="translate(86.13 49.33) rotate(-13.03)">D</text><text className="cls-1" transform="translate(114.19 44.59) rotate(12.88)">C</text><text className="cls-1" transform="matrix(0.8, 0.6, -0.6, 0.8, 141.29, 52.25)">A</text><text className="cls-1" transform="matrix(0.48, 0.88, -0.88, 0.48, 162.66, 70.31)">R</text><text className="cls-1" transform="translate(174.59 95.37) rotate(86.11)">D</text><text className="cls-1" transform="translate(174.46 123.58) rotate(107.3)">*</text><text className="cls-1" transform="translate(167.35 142.54) rotate(125.06)">*</text><text className="cls-1" transform="matrix(-0.8, 0.6, -0.6, -0.8, 154.81, 158.43)">*</text><text className="cls-1" transform="translate(138.01 169.71) rotate(160.77)">*</text><text className="cls-1" transform="translate(118.55 175.3) rotate(178.45)">*</text><text className="cls-1" transform="translate(98.33 174.69) rotate(-163.63)">*</text><text className="cls-1" transform="matrix(-0.83, -0.56, 0.56, -0.83, 79.26, 167.89)">*</text><text className="cls-1" transform="matrix(-0.62, -0.79, 0.79, -0.62, 63.17, 155.62)">*</text><text className="cls-1" transform="matrix(-0.34, -0.94, 0.94, -0.34, 51.62, 138.99)">*</text></g></g></svg>