<svg xmlns="http://www.w3.org/2000/svg" viewBox="0 0 311.33 285.76"><title>wlogoblack</title><g id="Layer_2" data-name="Layer 2"><g id="Layer_1-2" data-name="Layer 1"><path d="M255,114.23c2.68-15.51,2.19-30.4-2.27-45.27-3.33,5.33-7.55,5.93-12.21,1.9a13.82,13.82,0,0,1-4.39-7.3,5.25,5.25,0,0,1,1.75-5.79,5.36,5.36,0,0,1,6-.65c2.44,1.1,4.4,2.84,6.72,4.51-.32-1.27-.66-2.54-1-3.82s-1-2.52-.77-4.52a46.6,46.6,0,0,1,4.93,11c1.27,3.64,2.36,7.34,3.73,11.66.28-1.6.49-2.53.61-3.47a11,11,0,0,1,1.11-3.78,6.74,6.74,0,0,1,12.85,2.44,10.08,10.08,0,0,1-7.41,10.4c-2.59.58-4.42-.74-6.26-2.5,1.09,5.53,1.2,11.12,1.88,17.27A11.83,11.83,0,0,1,265,92.56c4.59-1.89,9.18.65,9.6,5.59.17,2.1.58,2.15,2.38,1.45a6.58,6.58,0,0,1,5.74.63c1.81,1.09,3.89,1.16,5.77,1.78,3.63,1.21,6.6,1.72,9-2,.55-.83,1.79-.61,2.79-.27a7.25,7.25,0,0,1,3.56,2.57,8.41,8.41,0,0,0,6.22,3.52c4.24.54,6.18,3.53,5.35,7.78-.26,1.3-.41,2.62-.76,3.88-.67,2.38-.51,4.33,1.91,5.72,1.86,1.05,1.45,2.88.81,4.41-1.19,2.84-.14,4.75,2.17,6.3,1.78,1.2,3.59,2.36,5.31,3.63,1.36,1,2.63,2.24,1.95,4.14s-2.39,2.05-4.13,1.93c-3.33-.22-6.42-1.42-9.58-2.32-5.05-1.45-10-3.44-15.41-3.23a17.08,17.08,0,0,0-11,4.35c-2.35,2.06-5,3.73-7.52,5.61-1,.75-1.88,1.6-2.82,2.41-1.4,1.21-1.35,2.32.21,3.37,1.93,1.31,3.09,3.83,6.23,3.16,1.29-.27,2.15,1.22,2.1,2.79s2.41,4.9,3.74,5c2.22.09,3.47-1.11,4.31-3.27,1.64-4.19,4.95-7.12,8.42-9.83a1.21,1.21,0,0,1,1.38-.22,1.13,1.13,0,0,1,.41,1.53c-.47,1.12-.44,1.9,1,2.07.29,0,.81.38.79.48-.46,2.07.87,2.59,2.38,3.46,1.16.67-.44,1.57-.9,2.44,1.16,1.29,4.15,1,3.53,3.93a4.57,4.57,0,0,0,1,.43c4.7,1.55,5.81,4.75,3.06,8.94-.41.61-.84,1.21-1.37,2,1.13.72,2.29.41,3.35.34,3.7-.26,7.38-.66,11.08-.92,1.37-.1,1.68-.53,1.21-1.86-1.68-4.76.75-9.3,5.64-10.71,3.18-.92,6.1,0,7.6,2.52,1.88,3.1,1.59,6-.83,8.6-.43.46-1.11.73-1.26,1.69l16.68,2.09a5.53,5.53,0,0,0-.53-.75c-3.4-3.12-4.34-6.19-2.77-9.13,1.77-3.32,6.66-5.45,10.41-4.51a12.66,12.66,0,0,1,4.31,1.8c2.46,1.74,3.26,4.36,1.73,6.92-1.92,3.2-4,6.33-8.4,6.46-1.85,2.74-4.61-.2-6.76,1.32,2.63,1.8,4.53,4.3,4.5,7.74a5.74,5.74,0,0,1-1.89,4.43c-2.57,2.27-7.2,1.59-10-1.49A11,11,0,0,1,344,185c-.36-2.8,2.22-3.56,4.14-5.48-3.07-.29-5.68-.68-8.31-.77-11.22-.38-22.41-.17-33.49,2-3.09.59-3.33.76-1.49,3.19,2.85,3.77,3.4,8.18,3.78,12.56,1,11.65,1.64,23.32,2.16,35,.45,9.86,1.6,19.68,2.21,29.54.45,7.21,1.28,14.44.31,21.7-.51,3.8-2.61,6.23-5.77,8.11-5.66,3.35-12,4.17-18.3,4.49-7.65.4-15.34.52-23,.4-7.83-.13-15.67-.41-23.48-.19-11.68.32-23.34,1.17-35,1.77-4.52.24-9.05.42-13.57.6-20.19.81-40.39.43-60.59.51-2.88,0-5.73.18-8.45-1.2a9,9,0,0,1-3.9-3.64,21.91,21.91,0,0,1-3-9.85c-.28-4.6-.49-9.21-.51-13.82-.06-14-1.1-28-2.43-41.9-.08-.9,0-1.82-.15-2.71-.37-2.82-.14-5.67-3.7-7.23-2.64-1.16-3.07-4.59-1.81-7.42.33-.74.75-1.44,1.18-2.24-.94-.62-1.66,0-2.34.26a88.68,88.68,0,0,0-21.28,11.45c-1.52,1.09-1.4,1.6.17,2.52,2.78,1.62,3.73,5.87,2.41,9.79A7.06,7.06,0,0,1,82.67,237c-3.15-.23-5.39-2.9-5.31-6.33a3.05,3.05,0,0,0-.28-2.32,56.07,56.07,0,0,0-4.28,4.57c-1.69,2.28-4.13,3.2-6.58,4.11a5.17,5.17,0,0,1-7-3.54,8.17,8.17,0,0,1,2.36-8.78,10,10,0,0,1,10.15-2.09c1.78.61,2.21,2.38,2.8,3.88.5,1.26,1,1.32,1.92.48,2.54-2.34,5-4.76,7.68-7s5.37-4.08,8.46-6.4c-2.87-.26-5.39-.52-7.23-2.47a7,7,0,0,1-1.59-6.91c1-4.05,6-6.62,10.79-5.67,5.08,1,6.33,3.43,5.47,11l11.41-4.85c1.38-.59,1-1.8.84-2.8a73,73,0,0,1-1-11.06,12,12,0,0,1,3-7.93c8.46-9.6,17.79-18.33,27-27.22.28-.26.71-.44.54-1.14-2.26.64-3.75,2.23-5.21,3.89-1,1.13-2,2.38-3.75,1.57s-1.56-2.48-1.3-4.09a13,13,0,0,1,5.49-8.49c2.29-1.71,2.22-2.47-.32-3.81-2.05-1.08-4.16-2-6.22-3-2.36-1.18-2.48-2.46-.28-4a9,9,0,0,1,3.31-1.62c2.8-.48,4.76-2.57,7.31-3.48,1.14-.41.84-1.08.19-1.66-4.38-3.87-8.71-7.82-13.23-11.53-1.48-1.22-3.48-.69-5.19,0-1.06.45-2,1.08-3.1,1.55-1.5.68-2.65.2-3.07-1.38a2,2,0,0,1,2-2.73,38.59,38.59,0,0,1,4.66.34,1.63,1.63,0,0,0,1.63-.53c-4.73-3.42-8.64-8.14-15.61-6.45-2.58.62-5.42.22-8.14.21-1.08,0-2.2-.27-2.58-1.51s.42-1.65,1.33-2c.43-.16.75-.37.47-.89-1.12-2.1.24-2.46,1.84-2.54.74,0,1.31-.06,1.24-1,0-.28.2-.82.32-.83,1.89,0,2.68-.89,2.51-2.84-.05-.62.83-.78,1.39-.46,1.27.73,1.89.56,2-1,0-.72.34-1.56,1.25-1.59s1.28.72,1.52,1.42c.93,2.65,1.82,5.3,2.67,8a5.09,5.09,0,0,0,2,3c8.94,5.85,16.47,13.41,24.41,20.47a7.71,7.71,0,0,0,1.29,1.15c1,.56,1.65,2.28,3.09,1.34,1.59-1,3.08-2.3,2.7-4.6a74,74,0,0,0-3.16-13.2,7.58,7.58,0,0,0-2.14-3,6.19,6.19,0,0,1-1.83-2.3,2,2,0,0,1,.77-2.61c1-.59,1.74-.1,2.41.58a4.78,4.78,0,0,1,1.21,2.4c1.36,5.52,3.34,10.88,4.31,16.5.12.67-.17,1.72.78,1.88s1.49-.61,2-1.27c1-1.24,1.76-2.53,3.51-2.89a7.55,7.55,0,0,1,5.9,1,6.83,6.83,0,0,0,8.72-1.36c.75-.87,1.37-2.09,2.77-1.27s1,2.13.59,3.31-.92,2.24-1.56,3.78a56.22,56.22,0,0,0,7.61-5.61c.79-.62.34-1.35,0-2-3-5.07-6.52-9.34-12.62-11.1s-11.79-4.22-17.69-6.34a26.4,26.4,0,0,0-17.46-.26,23,23,0,0,1-4.08,1,3.55,3.55,0,0,1-3.49-5.46,11.23,11.23,0,0,1,3.83-3.8c1.26-.78,2.6-1.43,3.82-2.28,2.72-1.92,2.9-2.75,1.47-5.76-.82-1.73-1.58-3.47-1.29-5.45.53-3.56,3-5.68,7.51-5.72a16.11,16.11,0,0,0,9.7-3.06,3.09,3.09,0,0,1,1.07-.6c5.15-1.24,9.51-3.89,13.67-7.09,1.91-1.48,4.31-1.09,6.32.18a12.35,12.35,0,0,0,11.33,1c4.42-1.54,6.23-.35,7.51,4.23.63,2.23,2.2,3.1,4.59,2.35s4.82-1.71,7.23-2.54a10,10,0,0,1,7,.15c3.69,1.45,4.4,5.54,1.43,8.14A16.37,16.37,0,0,1,207,79.11a50,50,0,0,0-21.36,22,22.22,22.22,0,0,0-2.31,13.68c.48,2.85,1.15,3.1,3.47,1.47,2.49-1.76,4.89-3.66,7.43-5.34,1.48-1,1.71-1.94.83-3.47s-1.29-3.07,1.5-2.82a2.26,2.26,0,0,0,1.4-.41c1.75-1.31,3.4-2.48,4.75.47.22.46.92.19,1.38,0a41.31,41.31,0,0,1,6.91-1.89,2,2,0,0,0,1.79-2c.11-.74.38-1.54,1.24-1.67s1.34.62,1.58,1.32c.78,2.25,1.67,3,3.67.89,1.09-1.16,2,0,2.21,1.13.33,1.53,1,1.44,2,.57a19.66,19.66,0,0,1,1.77-1.35,1.56,1.56,0,0,1,1.84-.2,1.4,1.4,0,0,1,.58,1.74c-.6,1.75.2,1.82,1.54,1.41s2.51-.22,2.38,1.43.39,1.67,1.65,1.34c.79-.2,1.78-.35,2.17.62s-.45,1.62-1.14,2.22-2.49.95-2,1.79a14.07,14.07,0,0,0,3.87,3.69c.65.49.9-.47,1-1,.86-3.84,2.62-7.48,2.38-11.55a3.51,3.51,0,0,1,1.32-2.83c1.15-1,2.4-1.17,3.49.07s1.09,2.8-.27,3.42c-3.29,1.51-3.07,4.74-4.27,7.34-2.2,4.8-1,8.26,3.17,11.26,2.54,1.8,4.66,4.18,7,6.27,1.23,1.11,2.09,1.2,2.43-.78.3-1.79.83-3.53,1.22-5.3a1.63,1.63,0,0,0-.06-1.16c-.28-.41-.71,0-1.08.12-4.37,1.83-6.23,1.53-8.5-1.37-2.51-3.21-2.74-8.2-.5-11.09a5.78,5.78,0,0,1,9.74.74C253.79,111.12,254.26,112.46,255,114.23Zm19.28-11.72c-.3.48-.45.67-.57.89-3.23,5.95-6.72,7.16-12.86,4.34-1.37-.62-1.36.29-1.49,1.1-.5,3.17-1,6.34-1.43,9.51-.08.55-.13,1.32.17,1.64.63.69,1.14-.2,1.67-.45a5.92,5.92,0,0,1,7.82,2,7.26,7.26,0,0,1-1.6,9.57,6.2,6.2,0,0,1-8.51-.18c-.5-.49-.84-1.52-1.66-1.21s-.72,1.39-.89,2.17a2.51,2.51,0,0,0,1.13,2.55c1.13,1,2.22,2,3.3,3,4,3.75,8.08,7.5,12.08,11.29,1.11,1.05,2,1,2.79-.3,4.56-7,9.08-13.93,10.5-22.37,1.34-8-.24-14.89-7.15-19.9A11.48,11.48,0,0,1,274.31,102.51ZM306,166.33a58.35,58.35,0,0,1-12.1-.8,4.17,4.17,0,0,0-1.88.43c-1,.34-1.2.8-.47,1.77,1.1,1.48,2.31,2.24,4.19,1.64a1.93,1.93,0,0,1,2.2.73,1.2,1.2,0,0,1-.06,1.78c-1.65,1.13-.63,2,.12,3,.87,1.1,1.75,2.18,2.68,3.21s1.12,1.07,2.36.16c-2.64-2.07-2.76-2.69-1.16-5.78A33.69,33.69,0,0,1,306,166.33Z" transform="translate(-58.79 -53.29)"/><path d="M141.42,317.18q-1.84,9.57-3.68,19.15c-.18,1-.26,2-1.59,2.16-1.49.16-2.59-.14-2.87-1.88q-2.28-14.14-4.59-28.29c-.19-1.15.13-1.94,1.46-2s2.35.24,2.58,1.89c.75,5.38,1.6,10.75,2.42,16.12A8.16,8.16,0,0,0,136,327q1.5-7.89,3-15.77c.2-1.06.41-2.11.61-3.16a2.06,2.06,0,0,1,4.06,0c1,5.18,1.94,10.36,2.95,15.54a5.72,5.72,0,0,0,1.11,3.09c.76-5.1,1.47-9.86,2.17-14.62.19-1.3.4-2.6.54-3.91.18-1.61,1.15-2.05,2.59-1.9s1.54,1.26,1.36,2.37q-2.21,13.9-4.46,27.81c-.18,1.14-.6,2-2,2s-2.06-.74-2.3-2q-1.56-8.38-3.15-16.76c-.16-.89-.36-1.76-.55-2.64Z" transform="translate(-58.79 -53.29)"/><path d="M262.23,322.42c0-4.53,0-9.06,0-13.59,0-1.91.71-2.71,2.63-2.6,2.37.13,4.76-.15,7.14.35,2.83.61,5.2,1.85,6,4.83.94,3.54,1.07,7.16-1.77,9.94a3.06,3.06,0,0,0-1,3.61c1.1,3.63,2.12,7.28,3.1,10.93.23.84,1.14,2.13-.35,2.47s-3.27.82-3.92-1.34c-1-3.48-2-7-3-10.46-.13-.48-.29-.95-.41-1.43a1.79,1.79,0,0,0-2.25-1.4c-1.25.18-1.2,1.18-1.21,2.09,0,3.37-.07,6.75,0,10.13,0,1.89-.67,2.64-2.61,2.62s-2.44-.83-2.42-2.55C262.26,331.49,262.23,327,262.23,322.42Zm5-7.66c0,1,.06,2,0,3-.15,2.12,1,2.55,2.78,2.25,1.61-.28,3.2-.85,3.43-2.67.28-2.21,1-4.67-1.09-6.47a4.27,4.27,0,0,0-4.19-.82c-1.43.48-.78,2-.91,3A14.1,14.1,0,0,0,267.22,314.76Z" transform="translate(-58.79 -53.29)"/><path d="M192.88,322.35c0-4.53,0-9.06,0-13.59,0-1.78.6-2.6,2.43-2.52,2.55.11,5.1-.19,7.63.37,4,.88,6.29,3.26,6.41,7.33.17,5.6.2,11.21,0,16.8-.19,4.75-3.23,7.54-8,7.75-2.05.09-4.12,0-6.17.05-1.72.07-2.33-.7-2.31-2.36C192.91,331.57,192.88,327,192.88,322.35Zm4.65,0c0,3.37,0,6.74,0,10.11,0,.79-.18,1.67.69,2.21,1.79,1.13,5.58-.13,5.92-2.27a65.4,65.4,0,0,0,0-19.85c-.28-1.9-2.69-3-5.23-2.63-2.26.29-1.34,2.12-1.38,3.32C197.44,316.3,197.52,319.34,197.53,322.38Z" transform="translate(-58.79 -53.29)"/><path d="M282.93,322.34c0-4.53.05-9.06,0-13.58,0-1.78.6-2.6,2.43-2.52,2.54.11,5.1-.19,7.63.37,4,.88,6.28,3.26,6.4,7.33.17,5.6.2,11.21,0,16.8-.18,4.75-3.23,7.54-8,7.75-2.05.09-4.11,0-6.17.05-1.72.07-2.33-.7-2.31-2.36C283,331.57,282.93,327,282.93,322.34Zm4.65-.13c0,3.45.07,6.9,0,10.35-.05,1.85.71,2.45,2.49,2.4,3.27-.09,4.56-1.31,4.69-5.26.14-4.76.07-9.52,0-14.29a9.28,9.28,0,0,0-.58-3.13c-.94-2.47-3.29-2.29-5.24-2.27-2.1,0-1.27,1.95-1.31,3.08C287.5,316.13,287.58,319.17,287.58,322.21Z" transform="translate(-58.79 -53.29)"/><path d="M226.77,322.4a62.61,62.61,0,0,0,.35,8.87c.24,2.13,1,3.64,3.42,3.67s3.45-.9,3.81-3.57a12.64,12.64,0,0,0,.1-2.46c-.12-1.79.62-2.5,2.45-2.48s2.12,1,2.15,2.54c.14,7.43-4.3,11.39-10.93,9.69-3.55-.91-5.74-3.6-5.92-8.14a158.06,158.06,0,0,1,0-16.29c.38-6.4,5.28-9.54,11.5-7.79,3.74,1.06,6.74,7.29,5.17,10.76-.54,1.19-1.61.94-2.57.95s-1.77-.37-1.82-1.54,0-2.31-.18-3.45c-.28-2.06-1.42-3.36-3.61-3.26a3.46,3.46,0,0,0-3.57,3.38A60.4,60.4,0,0,0,226.77,322.4Z" transform="translate(-58.79 -53.29)"/><path d="M257.2,338.49c-1.45.15-2.34-.29-2.52-1.77-.12-1-.48-1.94-.53-2.92-.13-2.6-1.37-3.43-4-3.3-2.13.1-3.23.7-3.39,2.89-.08,1.14-.48,2.26-.67,3.39-.39,2.2-2.06,1.85-3.47,1.64-1.76-.25-1-1.61-.8-2.54,1.89-9,3.84-18.05,5.71-27.09.34-1.68.92-2.6,2.86-2.6s2.51,1,2.85,2.66q2.84,13.54,5.77,27.07C259.41,337.67,259.21,338.75,257.2,338.49Zm-6.47-23h-.6c-.59,3.28-1.16,6.57-1.79,9.85-.33,1.75.83,1.68,1.92,1.63s2.59.39,2.26-1.58C252,322.08,251.33,318.79,250.73,315.5Z" transform="translate(-58.79 -53.29)"/><path d="M165.71,320.45c1.15-3.64,2.28-7.21,3.42-10.78a12.78,12.78,0,0,1,.83-2.32c.88-1.61,2.46-1.3,3.73-.9s.46,1.54.21,2.32c-1,3.06-1.89,6.15-3.05,9.15-2.22,5.75-3.68,11.6-3.06,17.83.17,1.69-.22,2.84-2.36,2.81s-2.37-1.14-2.21-2.71c.65-6.41-.94-12.4-3.22-18.3-1.06-2.76-1.94-5.61-2.81-8.44-.26-.89-1.39-2.2.24-2.69,1.46-.44,3.17-.59,3.83,1.53,1.12,3.62,2.3,7.23,3.46,10.84C164.89,319.31,164.82,320,165.71,320.45Z" transform="translate(-58.79 -53.29)"/><path d="M238.9,85.27a6.89,6.89,0,0,1,6.89-7.16c4.66-.07,9.55,5.17,9.55,10.23,0,3.28-3.59,7-6.77,7C243.67,95.36,238.94,90.42,238.9,85.27Z" transform="translate(-58.79 -53.29)"/><path d="M321.44,194a11.7,11.7,0,0,1-7.61-4.21c-3.08-3.56-1.14-8.74,3.65-10.07,2.92-.82,9,1.31,10.7,3.82a6.51,6.51,0,0,1,.46,7.23C327.31,193.22,325.13,194.15,321.44,194Z" transform="translate(-58.79 -53.29)"/><path d="M177.12,322.2c0-4.2,0-8.4,0-12.6,0-1.82-.11-3.44,2.58-3.41s2.43,1.59,2.43,3.31c0,7.49.06,15-.05,22.48,0,2.23.68,3.22,3,3a25,25,0,0,1,3.46,0c1.11,0,1.58.68,1.57,1.78s-.5,1.7-1.62,1.71c-3.21,0-6.43,0-9.64,0-1.68,0-1.68-1.27-1.68-2.45Q177.12,329.13,177.12,322.2Z" transform="translate(-58.79 -53.29)"/></g></g></svg>