<svg xmlns="http://www.w3.org/2000/svg" viewBox="0 0 428 417.1"><defs><style>.cls-1{fill:#fefefe;}.cls-2{fill:#e6e8ea;}.cls-3{fill:#e7c5a0;}.cls-4{fill:#438e87;}.cls-5{fill:#88be39;}.cls-6{fill:#458f88;}.cls-7{fill:#b42228;}.cls-8{fill:#b62429;}.cls-9{fill:#e5c4a0;}.cls-10{fill:#8bc036;}.cls-11{fill:#46918b;}.cls-12{fill:#7b389d;}.cls-13{fill:#598b82;}.cls-14{fill:#69887f;}.cls-15{fill:#fdfdfd;}</style></defs><title>wyldcolor</title><g id="Layer_2" data-name="Layer 2"><g id="Layer_1-2" data-name="Layer 1"><path class="cls-1" d="M426.73,417.06q-212.22,0-424.46,0c-1.85,0-2.27-.42-2.27-2.27Q.08,208.59,0,2.35C0,.5.42.08,2.27.08Q213.89.16,425.5.16c.72,0,1.67-.57,2.22.46-1.83.58-.94,2.11-.94,3.15Q426.71,210.41,426.73,417.06Zm-353-190.95h0a3,3,0,0,0-1-2c-.1-1.18-1-1.64-1.91-2-4.89-1.94-11.59,1.87-12.37,7-.62,4.17,1.74,7.79,5.31,7.57a11.22,11.22,0,0,0,7.24-3.18c2-1.94,4-3.85,6.08-5.82,0,1.34-.09,2.49,0,3.63a4.94,4.94,0,0,0,4,4.76,6.93,6.93,0,0,0,7.76-3.38c1.54-3.18.85-8.42-1.37-10.12a5.12,5.12,0,0,0-1.34-.52,2,2,0,0,0-1.61-1A82.58,82.58,0,0,1,111,207.05c-3.75,6.74-2.63,10.45,3.16,11.86.2,2.62.3,5.24.62,7.84,1.19,9.77,1.72,19.59,2.28,29.4.5,8.6.37,17.24.65,25.86.15,4.58,1.23,8.91,4.2,12.61a3.81,3.81,0,0,0,3.53,1.77c1.74,1.8,4,1,6,1.17a3.71,3.71,0,0,0,1,.25c20.41,0,40.83.42,61.23-.57,3.69-.18,7.39-.25,11.08-.41,12.79-.56,25.55-1.85,38.37-1.95,16.45-.13,32.93.58,49.37-.53,5-.34,10-1.09,14.12-4.3,1-.5,2.16-.8,2.53-2.06,2.68-.86,3-3.21,3.34-5.47.78-5,.41-9.95.14-15-.61-11.29-1.93-22.53-2.47-33.82-.49-10.16-.91-20.32-1.65-30.46-.32-4.32-.42-8.68-1.61-12.9-.11-1.38-.14-2.8-1.29-3.83-.41-2.25-2.54-3.61-3-5.84a140.58,140.58,0,0,1,44.5-1.93v.85l-2.46,1.85a2.52,2.52,0,0,0-1.13,2.08c-.55,4.44,3.62,9.56,8.08,9.91a5.25,5.25,0,0,0,6-4.51c.75-3.55-1.06-6.8-5-8.91.89-.74,2-.15,2.94-.41H360c-.09-.81-1.48-.07-1.52-1.08,4.41.72,7-1.86,9.31-5.07s1.64-6.77-2-8.58a14.48,14.48,0,0,0-3.93-1.33c-6-1-11.43,4.38-9.75,9.67a6.31,6.31,0,0,0,1.84,2.91l2.64,2L338,176.05c4.53-4.83,5.06-7.21,2.52-10.74-1.89-2.62-5.13-3.18-8.64-1.51s-5.39,5.24-4.57,8.57a3.37,3.37,0,0,0,1.12,2.43c-.05.41-.11.85-.63.89l-17.13,1.41c1-1.08,1.76-1.81,2.4-2.64,1.52-1.93,2.17-4.14,1.11-6.42s-3.18-2.63-5.39-2.71l-.74,0c2-1.92,1.92-2-2.79-4.16.23-1,2.41-1.1,1.49-2.6-.61-1-2.09-.41-3.11-.86,1.36-2.76,1.33-2.81-1.75-2.94l-.35-.42c.24-.6.49-1.2.74-1.8a1.11,1.11,0,0,0-.11-1.36,1,1,0,0,0-1.33.12c-3.84,3.39-8,6.57-9,12.05l-3.9,1.51a20.74,20.74,0,0,0-4.29-4.13c.41-1.26.86-2.52-.37-3.61-1.05-.92-2.12-.5-3.19,0L274,151.92a26.87,26.87,0,0,1,5.85-5.46c2.22-1.73,5-2.8,6.59-5.29,2.19-1.27,4.25-2.75,6.84-3.29,5.73-1.2,11.09.29,16.47,1.92,4.08,1.24,8.06,2.86,12.36,3.25,1.62.15,3.27,0,3.88-1.81s-.48-3-1.85-3.93c-1.83-1.25-3.68-2.49-5.52-3.73-2.31-1.56-3.37-3.51-2.1-6.3a4.38,4.38,0,0,0,.43-2.65.66.66,0,0,0-.43-.91c-3.53-1.9-3.35-4.93-2.47-8.17.2-.71.35-1.43.5-2.15.9-4.6-1-7.27-5.61-7.84a7.29,7.29,0,0,1-4.95-2.37l-.79-.76c-3-3.7-5.53-4.24-7.68-1.26-1.66,2.3-3.23,2.7-5.43,1.1l-1.18-.3a10.56,10.56,0,0,0-4.11-.36l-1.45-.67c-3.55-2.64-7.21-2.53-9.31.29,0-.82-.05-1.64-.07-2.46-.11-5.9-5.47-8.91-10.58-6a18.62,18.62,0,0,0-3.88,3.62c-.26-3.37-.57-6.28-.68-9.2-.13-3.19-1.29-6.24-1.16-9.46.95.66,1.25,2,2.43,2.4.3.56.85.61,1.4.67a1.42,1.42,0,0,0,1.58.38,9.82,9.82,0,0,0,8.15-7.81,7.1,7.1,0,0,0-4.89-8.71c-3.45-.91-7,1.48-8.18,5.37-.64,2.06-.24,4.24-1,6.26-.56-.25-.46-.81-.6-1.26-1.92-6.18-3.59-12.45-6.32-18.35-.37-.79-.46-1.9-1.85-2.22.38,1.35.73,2.49,1,3.65s1,2.43.81,3.81c-.83-.06-1.1-.75-1.54-1.19a17.76,17.76,0,0,0-5.83-4,5.34,5.34,0,0,0-7.36,3.94c-.86,5,5.18,12.24,10.24,12.24A4.47,4.47,0,0,0,249,72l.85-.73c1.5-.54,1.4-2.2,2.26-3.41,4.77,15.31,5.15,30.65,2.38,46.76-.6-1.56-1-2.61-1.39-3.64-1.29-3.1-3.48-4.66-6.14-4.38s-4.84,2.35-5.48,5.55c-1,5.14,2.68,10.31,7.24,10.09a3.12,3.12,0,0,0,2.47-.76c.65-.37,1.16-1.07,2.35-1-.8,3.22-1.54,6.23-2.29,9.24-2-1.05-3.31-2.85-5-4.21-3.11-2.49-5.53-5.75-9-7.81q1.59-6.3,3.19-12.6c.91-.53,1.88-1,2.74-1.6,1.28-.92,1.55-2.18.44-3.36s-2.56-1-3.62.23a3.34,3.34,0,0,0-.55,4.09q-1.54,5.73-3.1,11.45c-2.2-1-3.58-3.06-5.41-4.55.88-.57,1.79-1.12,2.65-1.74.65-.48,1.5-1.07,1.16-2s-1.36-.66-2.16-.49-1.38.58-2.15,0c.14-1,1.27-2.44-.41-2.89-1-.27-2.3.35-3.64.6a10.28,10.28,0,0,1,.27-1.35c.3-.86.77-1.77-.31-2.39-.89-.52-1.51.2-2.18.67-1,.68-1.76,1.67-3,2.08l-.32-1c-.25-.83,0-2-1.06-2.31s-1.43.88-2,1.53c-1.32,1.48-1.83.52-2.38-.72-.44-1-.54-2.72-1.87-2.58-1.52.16-1.16,1.9-1.38,3l-.12.48A33.68,33.68,0,0,0,201.86,105c-.79-.94-.49-3.78-2.88-2-1.57,1.19-3,2.09-5,1.16-.41,2,1.07,3.21,1.45,4.74a131.49,131.49,0,0,1-11.61,8.61,10.67,10.67,0,0,1-1.5-7.25c.26-2.35,1.48-4.54,1.16-7v0a.68.68,0,0,0,.3-.87A57.37,57.37,0,0,1,196,85.84c3.58-3.44,7.8-5.93,12.06-8.41,2-1.15,3.52-2.8,2.93-5.42-.52-2.29-2.26-3.48-5.15-3.65a.72.72,0,0,0-1-.15c-3.45-.38-6.36,1.34-9.42,2.44-2,.73-3.94,1.23-5.83-.24l-.33-.8c-1.22-5.81-2.73-6.74-8.34-4.82a13.25,13.25,0,0,1-7.71.23l-1.27-.55c-4.42-2.84-5.88-2.81-10,.24-.59.44-1.13,1-1.74,1.37-5.12,3.43-11.24,4.72-16.59,7.68a5.9,5.9,0,0,1-2.18.23.86.86,0,0,0-1.07.21c-6.68-.35-9.93,4.16-6.93,10.12,1.32,2.63,1.48,4.52-.85,6.39l-1.09.73a19.45,19.45,0,0,0-5.19,3.27c-2.24,2.05-3,4.23-1.91,5.81,1.53,2.23,3.69,1.67,5.8,1.1.24-.07.49-.09.72-.18,6.79-2.6,13.47-2,20.18.5s13.72,5,20.58,7.47a31.56,31.56,0,0,1,9,11.36c-.9,0-1.36.77-2,1.19-2.21,1.38-3.81,3.7-6.55,4.26.29-1.7,1.57-3,1.64-4.84a1.91,1.91,0,0,0-.89-1.89,1,1,0,0,0-1.52.32c-.95,2.24-3.15,2.62-5,3.54l-1,.53a3.35,3.35,0,0,1-3.09-1,6,6,0,0,0-5.36-1.61l-1,.07a2.81,2.81,0,0,0-2.73,1.73,7,7,0,0,1-3.48,3,69.81,69.81,0,0,0-4.13-16.15,11.56,11.56,0,0,0-1.24-4.7c-.54-1.11-1.57-1.85-2.81-1.11s-1,2-.27,3a38.84,38.84,0,0,0,3.3,3.24,98.29,98.29,0,0,1,3.84,16.5c-1.28,1.37-2.25,3.11-4.32,3.53-2.46-2.28-4.89-4.59-7.4-6.83-7-6.2-13.65-12.75-21.71-17.6-.92-3-1.8-6-2.8-8.89-.38-1.1-.57-2.94-2-2.75s-1,2-1.21,3.17c0,.13-.15.24-.22.35-1,0-1.75-1.62-2.85-.73s.32,1.83,0,2.77c-1.77.19-1.77.19-2.85,2.2-.26.5-.67.27-1,.28-3,.07-3.12.3-1.67,3-.92.5-2.56.29-2.29,2,.23,1.49,1.61,1.49,2.72,1.54a56.86,56.86,0,0,0,13-.89,41.7,41.7,0,0,1,11.2,7.83l-2.56.19c-1.45-.16-2.9-.38-4.35-.45a1.89,1.89,0,0,0-2,1.47,2.17,2.17,0,0,0,.69,2.22,1.67,1.67,0,0,0,2.23.2l3.79-2.18c1.76.32,3.62-.76,5.34.84,4.59,4.28,9.33,8.39,14,12.57-1.82,1-4,1.29-5.42,3l-.92.53a11.7,11.7,0,0,0-5.9,2.19c-2.18,1.48-2.09,2.45.23,3.59s4.59,2.15,6.81,3.36,2.23,2,.27,3.56c-1.78,1.42-3.72,2.69-4.5,5A1.13,1.13,0,0,0,132,153a15.61,15.61,0,0,0-.81,2.54c-.23,1.43-.7,3,1.09,3.89s2.56-.48,3.51-1.5c1.74-1.86,3.46-3.75,6.11-4.31A2,2,0,0,1,141,155c-7.41,6.59-14.1,13.93-21.22,20.83a4.31,4.31,0,0,0-.61,1,13.54,13.54,0,0,0-4.4,5.21c-2.9,1.6-3.7,4.39-4,7.35-.41,4.86.63,9.61,1.38,14.38-4.26,1.68-8.25,4-12.73,5.1-.31-.92.41-1.69.37-2.58.5-4.8-1.55-7.47-6.31-8.21s-9.68,2.11-10.35,6.21A6.87,6.87,0,0,0,85.48,211c2,1.7,4.39,1.74,7.54,1.91-7.32,4.5-12.9,9.94-18.78,15C74.15,227.32,74.47,226.58,73.76,226.11ZM315,180.57a1.76,1.76,0,0,0-1.56,1.46c-2.06,2-2.31,4.44-.47,6.77a11.56,11.56,0,0,0,9.36,4.7,6.14,6.14,0,0,0,6.31-6.22c0-2.85-1.28-5.29-4-6.27C321.53,179.9,318.32,177.6,315,180.57ZM252.67,92.23a4.9,4.9,0,0,0,1.82-4.61A10.84,10.84,0,0,0,248,78.43a6.86,6.86,0,0,0-9.62,6.18c-.1,4.31,3.58,9,7.81,9.89,1.86.37,3.79.54,5.14-1.33A1.75,1.75,0,0,0,252.67,92.23ZM135.39,327.59a7,7,0,0,1-.88-3.23c-.83-5.61-1.72-11.22-2.47-16.85-.25-1.94-1.55-1.52-2.72-1.56-1.56-.06-1.18,1-1,1.86,1.56,9.49,3.15,19,4.66,28.49.19,1.22.56,1.7,1.83,1.67s2-.1,2.22-1.59c.39-2.77,1-5.51,1.5-8.25.81-4.23,1.64-8.46,2.46-12.68,1.65,6.92,3,13.77,4.19,20.67.36,2.12,1.61,2,3,1.75s1-1.73,1.14-2.66q2.22-13.4,4.27-26.81c.14-.86,1.12-2.19-.79-2.44-1.56-.21-2.63,0-2.83,2-.37,3.85-.94,7.68-1.59,11.49-.4,2.33-.34,4.78-1.37,7.2a5.06,5.06,0,0,1-.95-2.75q-1.53-7.76-3-15.52c-.23-1.25-.18-2.36-2-2.36s-1.78,1.29-2,2.44C137.8,314.78,136.61,321.08,135.39,327.59Zm142.77,10.07c-1.28-4.59-2.52-9.18-3.87-13.74a2.22,2.22,0,0,1,.81-2.87c3.14-2.62,2.87-6.28,2.13-9.8-.66-3.11-3-4.53-6-5a69.63,69.63,0,0,0-7.64-.33c-1.45-.07-1.79.53-1.79,1.88.05,9.46.08,18.93,0,28.39,0,2.08,1.18,1.7,2.39,1.75s2.36.07,2.27-1.86c-.16-3.53-.09-7.08,0-10.62,0-.87-.72-2.23,1.11-2.46s2.5.41,2.9,2.09c.75,3.2,1.71,6.34,2.58,9.51C274,338.33,274,338.33,278.16,337.66Zm4.2-15.82c0,2.88-.07,5.76,0,8.64.08,2.44-1.09,5.77.51,7s4.72.42,7.18.36c5.27-.12,8.23-2.69,8.51-7.95.28-5.42.25-10.87,0-16.3-.2-4.66-2.65-7-7.3-7.44-2.37-.22-4.77-.12-7.15-.27-1.4-.08-1.84.41-1.82,1.82C282.41,312.45,282.36,317.14,282.36,321.84Zm-90-.06c0,2.88-.06,5.77,0,8.65.07,2.44-1.1,5.77.48,7.06s4.7.46,7.15.4c5.38-.11,8.34-2.77,8.58-8.14s.23-10.71,0-16.05c-.19-4.68-2.64-7.05-7.25-7.5-2.12-.21-4.28-.06-6.41-.28s-2.71.4-2.64,2.52C192.49,312.88,192.37,317.33,192.37,321.78Zm33.65.06c.2-2.9-.27-6,.31-9.15.49-2.59,1.74-3.6,4.23-3.44,2.27.14,3.22,1.26,3.35,4,0,1,0,2,0,3,0,.61.1,1.06.84,1.27,2.41.69,3.55-.12,3.47-2.61a18.33,18.33,0,0,0-.25-2.45c-.76-4.58-3-6.57-7.4-6.67-5.06-.1-7.84,1.73-8.53,6.3a67.29,67.29,0,0,0,0,19.43c.69,4.85,3.61,7,8.43,6.82,4.53-.13,6.78-2.26,7.54-7.17.15-1,.12-2,.27-2.95.26-1.76-.49-2.19-2.19-2.21s-2.37.51-2.17,2.24a15.45,15.45,0,0,1-.06,3c-.18,2.2-1.28,3.49-3.61,3.51a3.46,3.46,0,0,1-3.88-3.26C225.84,328.31,226.18,325.18,226,321.84Zm14.87,15.79c4,.76,4.12.69,4.83-3.16.86-4.72.86-4.66,5.65-4.57,1.37,0,1.84.51,2,1.8a36.84,36.84,0,0,0,.92,5.1c.54,2.1,2.32,1,3.51,1.05,1.51,0,.64-1.16.51-1.81-2-9.5-4.07-19-6-28.5-.34-1.65-1.28-1.63-2.48-1.6s-2.22-.19-2.57,1.51C245.18,317.52,243,327.57,240.89,337.63ZM165,321c-.4-1-.66-1.63-.85-2.24-1.21-3.75-2.5-7.48-3.55-11.28-.66-2.37-2.49-1.74-3.77-1.46-1.64.35-.29,1.6-.08,2.33,1,3.22,1.9,6.47,3.16,9.59a36.86,36.86,0,0,1,2.85,17.55c-.16,1.65.1,2.5,2.16,2.49s2.37-.73,2.21-2.45a37.5,37.5,0,0,1,2.88-17.8c1.33-3.27,2.28-6.69,3.34-10,.18-.57,1-1.59-.31-1.71-1.6-.15-3.33-.65-4,1.93C168,312.21,166.45,316.38,165,321Zm11.78,1.06c0,4.53.09,9.06,0,13.59-.06,1.92.58,2.38,2.38,2.28,2.79-.15,5.6-.07,8.4,0,1.17,0,2,0,2-1.62s-.79-1.71-2-1.66-2.48-.1-3.7,0c-1.94.21-2.53-.5-2.51-2.47.11-8.15,0-16.3.09-24.46,0-1.92-1-1.86-2.32-1.86s-2.38-.09-2.33,1.85C176.84,312.54,176.76,317.32,176.76,322.1Z"/><path class="cls-2" d="M426.73,417.06q0-206.65,0-413.29c0-1-.89-2.57.94-3.15q0,207.11-.07,414.21C427.65,415.47,428.87,417.12,426.73,417.06Z"/><path class="cls-3" d="M125.48,296.39a3.81,3.81,0,0,1-3.53-1.77c-3-3.7-4-8-4.2-12.61-.28-8.62-.15-17.26-.65-25.86-.56-9.81-1.09-19.63-2.28-29.4-.32-2.6-.42-5.22-.62-7.84.4,0,.81-.13,1.21-.15,4.39-.29,7.6-5.89,5.65-9.84-.66-1.32-1.27-1.82-2.36-.31s-2.57,3.18-3.86,4.77l-.29-.29a31,31,0,0,1,2.09-5.23c.23-.58,1-1.27.43-1.8-1.35-1.37.1-1.4.74-1.6a74.71,74.71,0,0,1,12.42-2.84c1.83-.25,3.72-1.08,5.71-.37a42.21,42.21,0,0,0-2,4.11c-1.73,4.73.46,9.27,5,10.24a9.44,9.44,0,0,0,9.49-3.35,8.42,8.42,0,0,0,1.17-9.45c-.22-.49-.91-1-.46-1.52s1.19.2,1.81.15a133.62,133.62,0,0,0,14.6,7.08c.44,5,2.94,7.27,7.5,6.91a28.7,28.7,0,0,0,5-1.25c10.33,5.88,20.92,11.27,31.49,16.68l1,.52a29.77,29.77,0,0,1,8.65,6.46c3.69,4.24,3.13,9.09-1.24,12.55a112.24,112.24,0,0,1-27.09,15.45C175.91,272,161,278,146.45,285,139.27,288.43,132.41,292.46,125.48,296.39Z"/><path class="cls-3" d="M306.91,190.38c1.19,4.22,1.29,8.58,1.61,12.9.74,10.14,1.16,20.3,1.65,30.46.54,11.29,1.86,22.53,2.47,33.82.27,5,.64,10-.14,15-.35,2.26-.66,4.61-3.34,5.47-4.32-2.17-8.54-4.56-13-6.45-17.82-7.59-36.4-13.08-54.73-19.29-6.75-2.29-13.64-4.19-19.71-8.18-1.55-1-1.71-1.59-.53-3.12,4.89-6.31,3.54-13.41-3.2-17.76-.75-.49-1.49-1-2.23-1.5.82-.35,1.64-.69,2.45-1.05,3.29-1.5,6.84-2.44,9.77-4.68a1.53,1.53,0,0,1,.3,0l.62-.18a19.15,19.15,0,0,1,5.6.2c4.24.79,8.49,1.56,12.75,2.18,2.43.36,3-.52,2-2.77a9.26,9.26,0,0,0-.94-1.4,1.15,1.15,0,0,0-.59-1.1c-.69-1.81-2.26-2.7-3.77-3.66-.63-.41-1.67-.41-1.58-1.56,2-.8,3.94-1.55,5.87-2.42a19.87,19.87,0,0,1,12.26-1.14c6.22,1.18,10.06,5.61,13.41,10.43,3.47,5,6.62,10.17,9.92,15.26a20.34,20.34,0,0,0,4.45,5.49c.31.35.64.57,1,.12a3.23,3.23,0,0,0,1.79-2.22c3.94-11,3.28-21.66-2.72-31.89-2.25-3.84-5.57-6.64-8.54-9.8,2.8-1.36,5.8-2.3,8.4-4.08,3.42.28,6.71.27,8.46-3.49Z"/><path class="cls-3" d="M306.63,290.05c-4.16,3.21-9.15,4-14.12,4.3-16.44,1.11-32.92.4-49.37.53-12.82.1-25.58,1.39-38.37,1.95-3.69.16-7.39.23-11.08.41-20.4,1-40.82.55-61.23.57a3.71,3.71,0,0,1-1-.25c11.26-6.71,23.45-11.5,35.27-17,17.32-8.1,35.58-14.36,51-26.2a1.42,1.42,0,0,1,2.13,0,47.29,47.29,0,0,0,13.27,7.49c17,6.77,34.41,12.46,51.59,18.75C292.21,283.32,299.68,286.08,306.63,290.05Z"/><path class="cls-4" d="M178,214.17a28.7,28.7,0,0,1-5,1.25c-4.56.36-7.06-1.88-7.5-6.91.32-.83.63-1.65.95-2.47a5,5,0,0,0,2.72-2.47l-8.89-1.08-9.38-1.06c-.62,0-1.28-.78-1.81-.15s.24,1,.46,1.52a8.42,8.42,0,0,1-1.17,9.45,9.44,9.44,0,0,1-9.49,3.35c-4.55-1-6.74-5.51-5-10.24a42.21,42.21,0,0,1,2-4.11c-2-.71-3.88.12-5.71.37a74.71,74.71,0,0,0-12.42,2.84c-.64.2-2.09.23-.74,1.6.52.53-.2,1.22-.43,1.8a31,31,0,0,0-2.09,5.23c0,.19-.09.37-.13.55l.42-.26c1.29-1.59,2.66-3.12,3.86-4.77s1.7-1,2.36.31c2,4-1.26,9.55-5.65,9.84-.4,0-.81.1-1.21.15-5.79-1.41-6.91-5.12-3.16-11.86a82.58,82.58,0,0,0-26.51,14.06,13.13,13.13,0,0,0-.84,9.78c.82-2.94,1.63-5.88,2.45-8.82a5.12,5.12,0,0,1,1.34.52c2.22,1.7,2.91,6.94,1.37,10.12a6.93,6.93,0,0,1-7.76,3.38,4.94,4.94,0,0,1-4-4.76c-.1-1.14,0-2.29,0-3.63-2.07,2-4.09,3.88-6.08,5.82a11.22,11.22,0,0,1-7.24,3.18c-3.57.22-5.93-3.4-5.31-7.57.78-5.17,7.48-9,12.37-7,1,.37,1.81.83,1.91,2a7.78,7.78,0,0,0-5.7,3.85l6.67-1.85h0c.23.6-.29,1.39.48,1.84,5.88-5.08,11.46-10.52,18.78-15-3.15-.17-5.59-.21-7.54-1.91a6.87,6.87,0,0,1-2.29-6.67c.67-4.1,5.5-7,10.35-6.21s6.81,3.41,6.31,8.21h-8.8a10.68,10.68,0,0,0,7.84,2.5l.48.39.09-.38v.07c4.49-1.09,8.48-3.42,12.74-5.1,3.89-1.13,7.78-2.3,11.69-3.37a100,100,0,0,1,18.53-2.85c1.48,0,2.95,0,4.42-.07.61,0,1.45.36,1.79-.34s-.55-1.08-.79-1.66a3.72,3.72,0,0,0-.09-1.22c-2.16-4.54,4.09-9.84,8.52-8.37,5.83,1.94,8.84,7.46,6.57,13.43,4.62,1.11,9.19,2.32,14.24,3.09-1.72-3-2.88-5.57-1.39-8.52,1.55,1.57,3.37,2.9,4.43,4.9,0,1-.07,2.08-.09,3.11a1.11,1.11,0,0,0,.72,1.14c.58.17.84-.38,1-.8a9.4,9.4,0,0,0,.34-1.39c2.78,3,5.8,5.82,8,9.37l-9.93-3.54a7.41,7.41,0,0,1-.78,6.32Zm-38.87-3.06c2-2.39,3.66-5,6.11-6.87.6-.47,1.55-1.1.82-2s-1.62-.13-2.22.31C141,204.68,140.33,208,139.12,211.11ZM153,189.41a8.55,8.55,0,0,0,3.74,7.63c.4.3.86.58,1.3.11s.17-.78-.08-1.12C156.39,194,154.83,191.89,153,189.41Zm17.68,21.93,5.14-2.83c.45-.25.88-.55.71-1.14-.23-.76-.9-.66-1.43-.52A5.85,5.85,0,0,0,170.65,211.34Z"/><path class="cls-3" d="M172,126.22c2.74-.56,4.34-2.88,6.55-4.26.67-.42,1.13-1.18,2-1.19a55.69,55.69,0,0,1,5.76,10.52c4.52,10.11,8.93,20.27,13.35,30.42a78.06,78.06,0,0,1,6.11,19.4l-.63,12.78c-2.53-.17-4.75-2.25-7.49-1.24A15.18,15.18,0,0,1,195.3,189c-4.93-8.61-9.71-17.3-15.78-25.2-3.23-4.19-7.23-7.89-8.7-13.25-.06-.21-.52-.32-.79-.48l.08,0-.61-.44-2.37-2.67-.52-1.73c0-.89.06-1.79.06-2.68a26.48,26.48,0,0,1,4.85-15.77c.3,0,.56-.16.57-.53Z"/><path class="cls-3" d="M175.7,194c-1.49,3-.33,5.56,1.39,8.52-5.05-.77-9.62-2-14.24-3.09,2.27-6-.74-11.49-6.57-13.43-4.43-1.47-10.68,3.83-8.52,8.37a3.72,3.72,0,0,1,.09,1.22l-28.67-18.65a4.31,4.31,0,0,1,.61-1C126.91,169,133.6,161.63,141,155a2,2,0,0,0,.86-1.43c4.64-1.38,9.26-2.8,14.16-1.07,2.54.9,5.14,1.66,7.72,2.49,3.07,5.61,6.63,11,9.21,16.85a14.68,14.68,0,0,1-2.09-.71c-7.78-4-15.85-7.21-24.72-7.56-3-.12-6.29-.62-8.64,2.17-.5.47-.7,1-.07,1.49.5,2.06,2.39,2.08,3.89,2.46a47.56,47.56,0,0,1,15,6.64,82.27,82.27,0,0,1,11.32,9C170.42,188.14,173.51,190.63,175.7,194Z"/><path class="cls-5" d="M286.39,141.17c-1.61,2.49-4.37,3.56-6.59,5.29a26.87,26.87,0,0,0-5.85,5.46,7.34,7.34,0,0,0-2.43,2.4c-3.19,4-6.43,7.89-9.55,11.9-5.24,6.73-11,13.08-15.46,20.38-1.83,3.17-4.15,6-5.69,9.38a9.7,9.7,0,0,0-2.75,3.88,28.25,28.25,0,0,1-2.81,6.12,7,7,0,0,0-3.39.19c-4.9,1.49-7.73,0-9.1-4.93a8,8,0,0,0-3.07-4.58c.28-1.69.64-3.37.82-5.07,1.62-15.59,9.57-28.63,16.82-42a2.6,2.6,0,0,1,2.6-1.55c1.1.14,1.37,1.27,1.86,2.1.87,1.48.07,3.28,1,4.74l.06,6.77c-.86,10-.77,20-2.3,30,3.61-5.25,7.22-10.41,10.95-15.49,6.71-9.13,14-17.82,21-26.72a37.83,37.83,0,0,0,5.37-7.88c1.45-2.72,2.6-5.62,4.5-8.1l.52.16c-.05,1.5-.9,2.95-.34,4.5l.23.59a3.55,3.55,0,0,0,2.11,2.22Z"/><path class="cls-6" d="M240.82,196c1.54-3.34,3.86-6.21,5.69-9.38a6.47,6.47,0,0,0,5.19-1.71,67.45,67.45,0,0,1,10.77-7.76c6.5-3.45,12.06-7.78,15.65-14.35l.81.44-4.5,6.64.26.42,13.2-5.44,3.9-1.51.93,1.38-3.07,1.46a49.13,49.13,0,0,0-8.21,2.62c3.95,1.63,7.45.6,10.81,1.07l-.43.86c-3.86.11-7.72.44-11.49-.82a2.84,2.84,0,0,0-1.93,0c-3.86,1.74-7.67,3.57-11.5,5.37l.11.41h3.35l.23.87c-2.46.46-5.2-.16-7.4,1.28-3.77,2.47-7.36,5.2-11.05,7.8-.79.56-1.28,1-.2,1.81a5.48,5.48,0,0,1,2.21,5.64c-.33,2.11.5,2,2,1.27,4.43-2.1,8.78-4.48,13.39-6.13s5.94-5.21,7.48-9c.29,0,.36-.17.16-.4l-.24.31c-1.81,1.2-2.8,3.18-4.35,4.63-.35.32-.61.88-1.17.75s-.77-.78-.88-1.33a7.49,7.49,0,0,1,1.54-6l4.81.88c1.83.35,3.44.17,4.32-1.78,2.77,2,1.81,4.52.55,7.43l19-4.92c.89-.32,2.16.29,2.64-1.06,2.27-2.29,4.35-4.71,5.31-7.92a52.87,52.87,0,0,0-7.12,7,2,2,0,0,1-1-2.88c1.54-3.26,3-6.63,6.39-8.49l1.09-.15.74,0c2.21.08,4.37.52,5.39,2.71s.41,4.49-1.11,6.42c-.64.83-1.41,1.56-2.4,2.64l17.13-1.41c.52,0,.58-.48.63-.89a37.69,37.69,0,0,0,6.1-5.74c.37-.15.69-.33.74-.78a.73.73,0,0,0,.22-.09s0-.11,0-.17l-.22.27a.93.93,0,0,0-1.08.39l-6.89,3.69c-.82-3.33,1.09-6.91,4.57-8.57s6.75-1.11,8.64,1.51c2.54,3.53,2,5.91-2.52,10.74l18.56,2.14-.05,0a.86.86,0,0,0,.92.78c.36,0,.23-.47.12-.76l.92.39c0,1,1.43.27,1.52,1.08h-4.41c-2.78-.71-5.65-.49-8.46-.86a140.58,140.58,0,0,0-44.5,1.93L288.43,184c3.14,2.41,6.74,3.23,8.29,6.56,0,1.13,0,2.27,0,3.41-1.75,3.76-5,3.77-8.46,3.49l-4.14-1.67c-1.67-2.75-4.14-5.28-1.88-9.08l-.64-.19L269.72,191c4.38,1.58,6.72,3.94,6.7,8a2.74,2.74,0,0,1-.09.39L272,197.9a11.73,11.73,0,0,0-5.62-4.16c-.7-.2-1.39-.3-1.65.51s.39.94.92,1.23c1.15.61,2.26,1.28,3.39,1.92-2.65.06-5.33-.08-7.84,1.07-.06-1.1-.12-2.2-.2-3.53-2.11,1.1-4,2-5.86,3.07-7.15,4-14.11,8.36-19.93,14.27-1.29.11-2.16,0-1.22-1.65.58-1,1-2,1.51-3,2.33-1.68,4.51-3.65,7-5,4.7-2.5,3.69-7.34,5.19-11.15-2,1.85-2.45,4.62-4.08,6.64C242.54,197.37,242.63,195.45,240.82,196Zm49.46-4.37a13.14,13.14,0,0,0-4.93-4.28c-.58-.35-1.32-.52-1.71.19s.19,1.15.67,1.4A26.68,26.68,0,0,0,290.28,191.61Zm14.4-13.76-.22.05s0,.13.06.13a.79.79,0,0,0,.22-.05Z"/><path class="cls-6" d="M242.82,161.69l-.06-6.77c.55-1.27,1.16-2.52,1.65-3.81,2.62-7,5.37-14,6.8-21.4.75-3,1.49-6,2.29-9.24-1.19-.08-1.7.62-2.34,1-2.11-1.95-1.89-5.1-4-7.14l1.54,7.9c-4.56.22-8.27-5-7.24-10.09.64-3.2,2.68-5.27,5.48-5.55s4.85,1.28,6.14,4.38c.42,1,.79,2.08,1.39,3.64,2.77-16.11,2.39-31.45-2.38-46.76-.86,1.21-.76,2.87-2.27,3.41a16.7,16.7,0,0,0-7-6.87L249,72a4.47,4.47,0,0,1-3.24.91c-5.06,0-11.1-7.24-10.24-12.24a5.34,5.34,0,0,1,7.36-3.94,17.76,17.76,0,0,1,5.83,4c.44.44.71,1.13,1.54,1.19.16-1.38-.49-2.57-.81-3.81s-.64-2.3-1-3.65c1.39.32,1.48,1.43,1.85,2.22,2.73,5.9,4.4,12.17,6.32,18.35.14.45,0,1,.6,1.26l0,0c0,.56-.35,1.26.53,1.53l0,0c-.13,3.22,1,6.27,1.16,9.46.11,2.92.42,5.83.68,9.2a18.62,18.62,0,0,1,3.88-3.62c5.11-2.93,10.47.08,10.58,6,0,.82.05,1.64.07,2.46h0c-.52.91-1,1.84-1.55,2.74-2.58,4.34-6.88,5.9-11,4,1.06-3,3.34-5.31,4.29-8.39-2.88,1.54-4.43,4.27-6.17,6.83-.44.06-.76.23-.83.73-.66,4.59-1.33,9.18-2,13.94,4.17-3,7.32-3.26,9.6-.76a7.33,7.33,0,0,1-.05,9.31,6.25,6.25,0,0,1-8.75,1.14l2.68-4.48.42-.56a1.08,1.08,0,0,0,.18-.11s0-.09,0-.13l-.15.27-.69.3-3.84,3.16c-.62-.49-1.31-1.6-1.54.29a26.91,26.91,0,0,1-.7,3q-1.08,3.14-2.15,6.28A192.84,192.84,0,0,1,242.82,161.69Z"/><path class="cls-7" d="M173.13,65a13.25,13.25,0,0,0,7.71-.23c5.61-1.92,7.12-1,8.33,4.82-1.5,2.9-3.14,5.74-4.49,8.71-3.35,7.4-6,15-6.59,23.21l-.4,2.19a75.54,75.54,0,0,1-1.28-22.07c-1.36,8.3-.94,16.6,0,25.26-1.79-2.67-2.56-5.38-3.85-7.85L167.28,84l-.64.23q2.55,7.48,5.09,15l-.58.23-10-16.48c.34,2.26,1.56,4.08,2.59,6,1.93,3.59,4.45,6.85,5.89,10.71-9-9-17.91-18.1-28.26-25.61a5.94,5.94,0,0,0,2.19-.23c5.35-3,11.47-4.25,16.59-7.68.61-.41,1.15-.93,1.74-1.37,4.1-3,5.56-3.08,10-.24-.93,8.74-1.26,17.47.48,26.14C172.81,82.08,171.91,73.52,173.13,65Z"/><path class="cls-8" d="M306.63,290.05c-6.95-4-14.42-6.73-21.89-9.47-17.18-6.29-34.59-12-51.59-18.75a47.29,47.29,0,0,1-13.27-7.49,1.42,1.42,0,0,0-2.13,0c-15.39,11.84-33.65,18.1-51,26.2-11.82,5.53-24,10.32-35.27,17-2-.17-4.29.63-6-1.17,6.93-3.93,13.79-8,21-11.43,14.5-7,29.46-12.94,44.31-19.13a112.24,112.24,0,0,0,27.09-15.45c4.37-3.46,4.93-8.31,1.24-12.55a29.77,29.77,0,0,0-8.65-6.46l.32-.39a18.9,18.9,0,0,0,5,.71c.74.5,1.48,1,2.23,1.5,6.74,4.35,8.09,11.45,3.2,17.76-1.18,1.53-1,2.1.53,3.12,6.07,4,13,5.89,19.71,8.18,18.33,6.21,36.91,11.7,54.73,19.29,4.44,1.89,8.66,4.28,13,6.45C308.79,289.25,307.63,289.55,306.63,290.05Z"/><path class="cls-9" d="M230.89,111.35c1.83,1.49,3.21,3.51,5.41,4.55C235,123.1,232.53,130,230.52,137c-5.35,18.65-11.93,37-14,56.48a2.64,2.64,0,0,0-2.36.62c-.57-.92-.21-2.19-1.08-3a310.53,310.53,0,0,1,1-31.26A223.41,223.41,0,0,0,220,136.15l.09-.5h0c2.48-1.41,4.29-3.59,6.36-5.48a13.09,13.09,0,0,0,4.32-1.68,2,2,0,0,0,.65-3.16c-1-1.29-2.19-1.51-3.36-.38s-2.6,2.56-2.52,4.59l-3.91,3.18c-.15-4-.5-4.36-3.92-4.57.09-3.55,1.6-6.84,1.86-10.35Z"/><path class="cls-10" d="M205.83,181.1a78.12,78.12,0,0,0-6.11-19.39c-4.42-10.15-8.83-20.31-13.35-30.42a55.69,55.69,0,0,0-5.76-10.52,31.56,31.56,0,0,0-9-11.36l3.89.42a5.45,5.45,0,0,0,4.11-1.51c2-1.16,2.43-3.48,3.89-5,.32,2.43-.9,4.62-1.16,7a10.67,10.67,0,0,0,1.5,7.25c.24.79.41,1.6.72,2.35q7,17,14.14,33.89l2.19,5.26a99.25,99.25,0,0,1,2.29-14.49c.07-.32.13-.65.19-1a9.38,9.38,0,0,0,1.48-4.44c.3-.61.6-1.21.89-1.82.54-.61,1.09-1.2,1.6-1.81,2.27-2.71,4.72-5.17,8.2-6.29-.49,5.55-.79,11.12-1.53,16.63-1.29,9.76-1.91,19.57-2.26,29.4-.25,7.31-.17,14.63-.24,22a.87.87,0,0,1-.39-.26l-.47-.43,0,0c.27-2.11-.9-4-1.06-6,.21-2.11-.42-4.08-.74-6.3-1,.81-.5,1.73-.76,2.46l-.81-1.41C206.81,183.85,206.32,182.48,205.83,181.1Zm1.88-3.92c.09.84-.3,1.76.4,2.7v-14c0-9.23.5-18.4,2.89-27.41a34.08,34.08,0,0,0-3.71,15.11c-.16,7.08,0,14.17,0,21.26C207.31,175.61,207.06,176.48,207.71,177.18Z"/><path class="cls-9" d="M251.21,129.71c-1.43,7.4-4.18,14.38-6.8,21.4-.49,1.29-1.1,2.54-1.65,3.81-.89-1.46-.09-3.26-1-4.74-.49-.83-.76-2-1.86-2.1a2.6,2.6,0,0,0-2.6,1.55c-7.25,13.33-15.2,26.37-16.82,42-.18,1.7-.54,3.38-.82,5.06-.87-.4-1.86-.63-2.24-1.68q1.44-8.24,2.87-16.46c1.88-10.86,5.45-21.25,8.5-31.79q4.2-14.52,8.37-29c3.46,2.06,5.88,5.32,9,7.81C247.9,126.86,249.24,128.66,251.21,129.71Zm-7.16,12.69c3.49-2.3,3.38-7.6,1.2-10.5-1.86-2.49-4.34-3.32-6.87-2.24-3,1.28-4.68,4.86-3.93,8.47a6.2,6.2,0,0,0,5.64,5c1.2,0,1.76-.07,1.37-1.61-.6-2.32-1.5-4.59-1.22-7.16Z"/><path class="cls-9" d="M203.18,144.51A99.25,99.25,0,0,0,200.89,159l-2.19-5.26q-7.06-16.94-14.14-33.89c-.31-.75-.48-1.56-.72-2.35a131.49,131.49,0,0,0,11.61-8.61l4.32,4.56a8.8,8.8,0,0,0,.22,1.94c2.71,7.68,3.74,15.7,4.86,23.7a9.38,9.38,0,0,1-1.48,4.44l-5.63-7.86c.26-1.34-.32-2.57-.56-3.84a1.9,1.9,0,0,0-1.66-1.59,1.39,1.39,0,0,0-1.56.93,2,2,0,0,0,.45,2.26c1,.89,1.91,1.76,2.86,2.64A63.26,63.26,0,0,0,203.18,144.51Z"/><path class="cls-7" d="M132.52,90.71c2.33-1.87,2.17-3.76.85-6.39-3-6,.25-10.47,6.93-10.12,2.75,2.85,6.13,4.94,9.1,7.53a165.61,165.61,0,0,1,18.76,18.79c-2.56-.25-3.89-2.47-5.89-3.65-1.82-1.07-3.23-2.81-5.59-3.11l13.39,10.29c.13,1-.34.69-.81.37-3.77-2.57-8-4.09-12.18-5.85C149.14,95.19,140.72,93.29,132.52,90.71Z"/><path class="cls-11" d="M135.39,327.59c1.22-6.51,2.41-12.81,3.6-19.11.22-1.15.07-2.43,2-2.44s1.82,1.11,2,2.36q1.41,7.77,3,15.52a5.06,5.06,0,0,0,.95,2.75c1-2.42,1-4.87,1.37-7.2.65-3.81,1.22-7.64,1.59-11.49.2-2,1.27-2.23,2.83-2,1.91.25.93,1.58.79,2.44q-2.07,13.43-4.27,26.81c-.16.93.3,2.38-1.14,2.66s-2.6.37-3-1.75c-1.14-6.9-2.54-13.75-4.19-20.67-.82,4.22-1.65,8.45-2.46,12.68-.53,2.74-1.11,5.48-1.5,8.25-.22,1.49-1,1.55-2.22,1.59s-1.64-.45-1.83-1.67c-1.51-9.5-3.1-19-4.66-28.49-.15-.88-.53-1.92,1-1.86,1.17,0,2.47-.38,2.72,1.56.75,5.63,1.64,11.24,2.47,16.85A7,7,0,0,0,135.39,327.59Z"/><path class="cls-7" d="M136.52,133.64c1.42-1.69,3.6-2,5.42-3,.67,0,1.37.19,2-.29,2.06-.42,3-2.16,4.31-3.53l1.31-.77a7,7,0,0,0,3.48-3,2.81,2.81,0,0,1,2.73-1.73,28.88,28.88,0,0,0,2.11,11.84l-1.08-11.91a6,6,0,0,1,5.36,1.61,3.35,3.35,0,0,0,3.09,1c0,.94,0,1.88-.05,2.83a39.45,39.45,0,0,0,.66,20l-.6.15q-2.8-5.05-5.6-10.1a8.28,8.28,0,0,0,1,3.49c1.39,3.14,3.57,5.89,4.55,9.23-.67.19-.94-.46-1.42-.68a29.46,29.46,0,0,0-5.78-6l-.53-.2.19.57c1.23,1.88,3.38,3,4.08,5.34l-1.41-.56c-.43-.36-.84-.76-1.31-1.08A148.26,148.26,0,0,0,136.52,133.64Zm16.67-2.3a6.82,6.82,0,0,0,3.16,5.06Zm3,10c-.49-1.49-1.71-2.26-2.78-3.18A6,6,0,0,0,156.2,141.31Z"/><path class="cls-7" d="M303.94,103.19a7.29,7.29,0,0,0,4.95,2.37c4.65.57,6.51,3.24,5.61,7.84-.15.72-.3,1.44-.5,2.15-.88,3.24-1.06,6.27,2.47,8.17l-5.57,1.85-16.67,5.63c-.23-1.43,1.48-1.6,1.74-2.72,4-2.7,7.32-6.18,10.79-9.49a68,68,0,0,0-11.16,9.13,12.78,12.78,0,0,0-3.61,3.3l-1.3,1.1-3.18,2.3-.25-.21,2.56-4.33a106.07,106.07,0,0,0,10.34-18.65C301.43,108.82,302,105.71,303.94,103.19Z"/><path class="cls-9" d="M215.54,129.17c-3.48,1.12-5.93,3.58-8.2,6.29-.51.61-1.06,1.2-1.6,1.81a13.33,13.33,0,0,1-.45-1.92c-.56-7.49-2.41-14.71-4.35-21.92,1.48-2.7.68-5.64.92-8.47A33.68,33.68,0,0,1,212,102.37c.05.32.11.64.16,1,.82,5,1.05,10.16,5,14C216.12,121.25,216.38,125.28,215.54,129.17Z"/><path class="cls-9" d="M278.12,162.78c-3.59,6.57-9.15,10.9-15.65,14.35a67.45,67.45,0,0,0-10.77,7.76,6.47,6.47,0,0,1-5.19,1.71C251,179.3,256.73,173,262,166.22c3.12-4,6.36-7.94,9.55-11.9a7.34,7.34,0,0,1,2.43-2.4l6.09,5.15C279,158.84,277.6,160.49,278.12,162.78Z"/><path class="cls-11" d="M278.16,337.66c-4.16.67-4.15.67-5.17-3.06-.87-3.17-1.83-6.31-2.58-9.51-.4-1.68-1.18-2.32-2.9-2.09s-1.09,1.59-1.11,2.46c-.08,3.54-.15,7.09,0,10.62.09,1.93-.94,1.92-2.27,1.86s-2.41.33-2.39-1.75c.1-9.46.07-18.93,0-28.39,0-1.35.34-1.95,1.79-1.88a69.63,69.63,0,0,1,7.64.33c3,.47,5.37,1.89,6,5,.74,3.52,1,7.18-2.13,9.8a2.22,2.22,0,0,0-.81,2.87C275.64,328.48,276.88,333.07,278.16,337.66Zm-9.69-28.42c-1.64-.38-2.27.35-2.14,2.23.15,2.21,0,4.43,0,6.65,0,.73-.07,1.4,1,1.59,3.14.57,5.52-1.09,5.93-4.27C273.84,311.4,272.32,309.37,268.47,309.24Z"/><path class="cls-4" d="M282.36,321.84c0-4.7.05-9.39,0-14.09,0-1.41.42-1.9,1.82-1.82,2.38.15,4.78.05,7.15.27,4.65.43,7.1,2.78,7.3,7.44.23,5.43.26,10.88,0,16.3-.28,5.26-3.24,7.83-8.51,7.95-2.46.06-5.65.86-7.18-.36s-.43-4.61-.51-7C282.29,327.6,282.36,324.72,282.36,321.84Zm11.83.13h0v-6.43c0-.25,0-.49,0-.74-.12-4.35-1.73-5.79-6-5.54-1,.06-1.45.34-1.44,1.42,0,7.58,0,15.15,0,22.73,0,.69,0,1.37,1,1.36,3.86-.07,6.16-.36,6.39-4.9C294.3,327.24,294.19,324.6,294.19,322Z"/><path class="cls-4" d="M192.37,321.78c0-4.45.12-8.9-.05-13.34-.07-2.12.64-2.72,2.64-2.52s4.29.07,6.41.28c4.61.45,7.06,2.82,7.25,7.5.22,5.34.24,10.71,0,16.05s-3.2,8-8.58,8.14c-2.45.06-5.66.83-7.15-.4s-.41-4.62-.48-7.06C192.31,327.55,192.37,324.66,192.37,321.78Zm4.46.32c0,3.54.11,7.09,0,10.62-.08,1.88.66,2.21,2.3,2,3.87-.37,5.06-1.49,5.12-5.44q.12-7.41,0-14.83c-.07-4-1.52-5.17-5.52-5.26-1.6,0-1.94.53-1.9,2C196.89,314.85,196.83,318.47,196.83,322.1Z"/><path class="cls-8" d="M286.39,141.17l-1.54-.17c9.4-6.18,20-7.35,31-6.87-.88-1.27-2-.87-2.88-.94a54.11,54.11,0,0,0-24.56,4.11l-.24-.26a23,23,0,0,1,1.88-1.54c8.21-5.41,17.75-7.53,26.79-10.87a4.3,4.3,0,0,1-.42,2.65c-1.27,2.79-.21,4.74,2.1,6.3,1.84,1.24,3.69,2.48,5.52,3.73,1.37.95,2.43,2.14,1.85,3.93s-2.26,2-3.88,1.81c-4.3-.39-8.28-2-12.36-3.25-5.38-1.63-10.74-3.12-16.47-1.92C290.64,138.42,288.58,139.9,286.39,141.17Z"/><path class="cls-8" d="M175.5,109.83l-3.89-.42c-6.86-2.48-13.76-4.88-20.58-7.47s-13.39-3.1-20.18-.5c-.23.09-.48.11-.72.18-2.11.57-4.27,1.13-5.8-1.1-1.08-1.58-.33-3.76,1.91-5.81a19.45,19.45,0,0,1,5.19-3.27,31.92,31.92,0,0,0,3.25,1.11,144.28,144.28,0,0,1,34,12.41C171,106.56,173.53,107.77,175.5,109.83Z"/><path class="cls-11" d="M226,321.84c.16,3.34-.18,6.47.35,9.59a3.46,3.46,0,0,0,3.88,3.26c2.33,0,3.43-1.31,3.61-3.51a15.45,15.45,0,0,0,.06-3c-.2-1.73.42-2.25,2.17-2.24s2.45.45,2.19,2.21c-.15,1-.12,2-.27,2.95-.76,4.91-3,7-7.54,7.17-4.82.14-7.74-2-8.43-6.82a67.29,67.29,0,0,1,0-19.43c.69-4.57,3.47-6.4,8.53-6.3,4.41.1,6.64,2.09,7.4,6.67a18.33,18.33,0,0,1,.25,2.45c.08,2.49-1.06,3.3-3.47,2.61-.74-.21-.84-.66-.84-1.27,0-1,0-2,0-3-.13-2.74-1.08-3.86-3.35-4-2.49-.16-3.74.85-4.23,3.44C225.75,315.79,226.22,318.94,226,321.84Z"/><path class="cls-11" d="M240.89,337.63c2.13-10.06,4.29-20.11,6.35-30.18.35-1.7,1.42-1.48,2.57-1.51s2.14-.05,2.48,1.6c1.94,9.52,4,19,6,28.5.13.65,1,1.84-.51,1.81-1.19,0-3,1-3.51-1.05a36.84,36.84,0,0,1-.92-5.1c-.15-1.29-.62-1.77-2-1.8-4.79-.09-4.79-.15-5.65,4.57C245,338.32,244.91,338.39,240.89,337.63Zm9.11-24-.46,0c-.66,3.61-1.33,7.21-2,10.82-.12.67-.74,1.74.11,1.94a9.59,9.59,0,0,0,4.13,0c.88-.19.37-1.29.25-2C251.41,320.89,250.7,317.28,250,313.65Z"/><path class="cls-12" d="M217.1,117.38c-3.91-3.88-4.14-9.07-5-14,0-.33-.11-.65-.16-1l.12-.48c.22-1.15-.14-2.89,1.38-3,1.33-.14,1.43,1.58,1.87,2.58.55,1.24,1.06,2.2,2.38.72.57-.65.89-1.82,2-1.53s.81,1.48,1.06,2.31l.32,1c1.25-.41,2-1.4,3-2.08.67-.47,1.29-1.19,2.18-.67,1.08.62.61,1.53.31,2.39a10.28,10.28,0,0,0-.27,1.35c1.34-.25,2.61-.87,3.64-.6,1.68.45.55,1.88.41,2.89.77.55,1.45.11,2.15,0s1.79-.48,2.16.49-.51,1.48-1.16,2c-.86.62-1.77,1.17-2.65,1.74l-11.34,6.46A4.23,4.23,0,0,0,217.1,117.38Z"/><path class="cls-7" d="M189.51,70.41c1.89,1.47,3.82,1,5.83.24,3.06-1.1,6-2.82,9.42-2.44-1.21,2.24-3.49,3.7-4.48,6.11v0c-2.8,2.21-4.64,5.27-6.88,8A110.21,110.21,0,0,0,180.89,101q2.79-8.67,5.6-17.34a85.5,85.5,0,0,0-6.92,18.83.88.88,0,0,0-.08.42c-.84-.63-.51-1.53-.38-2.26.53-3,1.09-6,1.79-8.89C182.68,84.23,186.11,77.32,189.51,70.41Z"/><path class="cls-9" d="M142.43,197.61a100,100,0,0,0-18.53,2.85c-3.91,1.07-7.8,2.24-11.69,3.37-.75-4.77-1.79-9.52-1.38-14.38.25-3,1-5.75,4-7.35,1.73.4,3,1.61,4.46,2.49a4.65,4.65,0,0,1-.6.77c-2.58,2.21-3,5-2,8a7.84,7.84,0,0,0,7.3,4.93c.75,0,1.66,0,2-.65s-.49-1.12-.84-1.65c-1-1.44-2.29-2.64-2.81-4.43a13.5,13.5,0,0,1,2.7,1.56c4.21,2.92,4.21,2.92,6-1.67Z"/><path class="cls-11" d="M165,321c1.47-4.66,3-8.83,4.05-13.1.66-2.58,2.39-2.08,4-1.93,1.3.12.49,1.14.31,1.71-1.06,3.36-2,6.78-3.34,10a37.5,37.5,0,0,0-2.88,17.8c.16,1.72-.23,2.43-2.21,2.45s-2.32-.84-2.16-2.49A36.86,36.86,0,0,0,159.89,318c-1.26-3.12-2.2-6.37-3.16-9.59-.21-.73-1.56-2,.08-2.33,1.28-.28,3.11-.91,3.77,1.46,1,3.8,2.34,7.53,3.55,11.28C164.32,319.41,164.58,320,165,321Z"/><path class="cls-7" d="M132.51,151.89c.78-2.33,2.72-3.6,4.5-5,2-1.56,1.93-2.36-.27-3.56s-4.54-2.24-6.81-3.36-2.41-2.11-.23-3.59a11.7,11.7,0,0,1,5.9-2.19c2.53,1.34,5.08,2.66,7.6,4A98.12,98.12,0,0,1,158,147.85c-3.78-.72-7.31-2.41-11.18-2.62,1.26.6,2.61,1,3.86,1.52s3.07.44,4.09,1.81A24.31,24.31,0,0,0,142,149C138.69,149.55,135.69,151,132.51,151.89Z"/><path class="cls-4" d="M251.31,93.18C250,95,248,94.87,246.17,94.5c-4.23-.84-7.91-5.58-7.81-9.89A6.86,6.86,0,0,1,248,78.43a10.84,10.84,0,0,1,6.51,9.19,4.9,4.9,0,0,1-1.82,4.61c-1.95-1.72-2.77-4.49-5.29-5.68-.12-.19-.24-.43-.47-.11,0,0,.18.2.28.3C248.25,89.09,249.92,91,251.31,93.18Z"/><path class="cls-7" d="M290,102.27c2.21,1.6,3.78,1.2,5.44-1.1,2.15-3,4.66-2.44,7.68,1.26-1,2.32-2,4.64-3,6.95a143.64,143.64,0,0,1-8.39,16.15c-.32.52-.34.51-1,.22,1.8-4,3.6-8.07,5-12.26a18.64,18.64,0,0,0,2.31-6.21,20.79,20.79,0,0,0-2.82,5.63c-.52,1.11-1,2.23-1.57,3.34-2.37,5-4.21,10.14-6.89,14.95-.25-1.92.81-3.62.94-5.48l.14-.84a4.87,4.87,0,0,0,.38-.88C289.83,116.84,290.77,109.62,290,102.27Z"/><path class="cls-11" d="M176.76,322.1c0-4.78.08-9.56,0-14.33-.05-1.94,1-1.84,2.33-1.85s2.34-.06,2.32,1.86c-.1,8.16,0,16.31-.09,24.46,0,2,.57,2.68,2.51,2.47,1.22-.14,2.46,0,3.7,0s2,.06,2,1.66-.82,1.64-2,1.62c-2.8-.05-5.61-.13-8.4,0-1.8.1-2.44-.36-2.38-2.28C176.85,331.16,176.76,326.63,176.76,322.1Z"/><path class="cls-4" d="M358.46,178.56l-.92-.39-1,0,.05,0-2.63-2c.46-.87,1.42-1,2.14-1.54,2.39-1.66,5.18-2.81,6.88-5.36a.67.67,0,0,0,.18-.11s0-.09,0-.14l-.14.29c-1-.31-1.71.4-2.48.78a42.2,42.2,0,0,1-8.43,3.17c-1.68-5.29,3.75-10.71,9.75-9.67a14.48,14.48,0,0,1,3.93,1.33c3.66,1.81,4.41,5.24,2,8.58S362.87,179.28,358.46,178.56Z"/><path class="cls-8" d="M183.5,103.28c-1.46,1.56-1.92,3.88-3.89,5q.73-2.37,1.49-4.73l0,0c.41-.2.45-.58.5-1A142,142,0,0,1,199.72,76c.4-.47,1-.94.57-1.72v0c2.73-1.17,3.78-3.89,5.52-6,2.89.17,4.63,1.36,5.15,3.65.59,2.62-.94,4.27-2.93,5.42-4.26,2.48-8.48,5-12.06,8.41a57.28,57.28,0,0,0-12.17,16.54l-.3.86Z"/><path class="cls-4" d="M260.05,80.15c-1.18-.42-1.48-1.74-2.43-2.4l0,0c0-.56.35-1.27-.53-1.53l0,0c.72-2,.32-4.2,1-6.26,1.22-3.89,4.73-6.28,8.18-5.37a7.1,7.1,0,0,1,4.89,8.71A9.82,9.82,0,0,1,263,81.2a1.42,1.42,0,0,1-1.58-.38q1.08-4.75,2.18-9.53l-.49-.12Z"/><path class="cls-4" d="M315,180.57c3.33-3,6.54-.67,9.63.44,2.73,1,4,3.42,4,6.27a6.14,6.14,0,0,1-6.31,6.22,11.56,11.56,0,0,1-9.36-4.7c-1.84-2.33-1.59-4.73.48-6.77a55.74,55.74,0,0,0,8.28,4.77c.17.16.36.33.54,0,0-.06-.15-.23-.23-.36A13,13,0,0,0,315,180.57Z"/><path class="cls-7" d="M142.43,197.61l-11.37-6.14c-1.81-7.21-5.46-9.33-11.82-6.88-1.46-.88-2.73-2.09-4.46-2.49a13.54,13.54,0,0,1,4.4-5.21l28.67,18.65c.24.58,1.12,1,.79,1.66s-1.18.31-1.79.34C145.38,197.61,143.91,197.59,142.43,197.61Z"/><path class="cls-12" d="M292.72,164.71l-.93-1.38c1.07-5.48,5.2-8.66,9-12.05a1,1,0,0,1,1.33-.12,1.11,1.11,0,0,1,.11,1.36c-.25.6-.5,1.2-.74,1.8l-.23.46.58,0c3.08.13,3.11.18,1.75,2.94,1,.45,2.5-.15,3.11.86.92,1.5-1.26,1.56-1.49,2.6,4.71,2.12,4.79,2.24,2.79,4.16l-1.09.15A47.52,47.52,0,0,1,292.72,164.71Z"/><path class="cls-12" d="M113.58,108a56.86,56.86,0,0,1-13,.89c-1.11,0-2.49,0-2.72-1.54-.27-1.7,1.37-1.49,2.29-2-1.45-2.69-1.32-2.92,1.67-3,.38,0,.79.22,1-.28,1.08-2,1.08-2,2.85-2.2.31-.94-1-2,0-2.77s1.82.72,2.85.73c.07-.11.2-.22.22-.35.21-1.17-.18-3,1.21-3.17s1.58,1.65,2,2.75c1,2.94,1.88,5.92,2.8,8.89Z"/><path class="cls-6" d="M352.63,180.05c3.93,2.11,5.74,5.36,5,8.91a5.25,5.25,0,0,1-6,4.51c-4.46-.35-8.63-5.47-8.08-9.91a2.52,2.52,0,0,1,1.13-2.08,32.14,32.14,0,0,1,7.53,5.5c-.56-3.06-2.66-5-4.54-7.14A9.47,9.47,0,0,1,352.63,180.05Z"/><path class="cls-8" d="M163.75,155c-2.58-.83-5.18-1.59-7.72-2.49-4.9-1.73-9.52-.31-14.16,1.07-2.65.56-4.37,2.45-6.11,4.31-.95,1-1.84,2.29-3.51,1.5s-1.32-2.46-1.09-3.89A15.61,15.61,0,0,1,132,153a105.65,105.65,0,0,0,11.44-3.51c9-1.67,17.05,1.08,24.78,5.32l-2.93.29Z"/><path class="cls-13" d="M295.77,113.49c-1.42,4.19-3.22,8.23-5,12.26-.63,1.45-2,2.73-.93,4.53l-2.56,4.33c-.38.28-.82.52-.71,1.13.63,0,.75-.52,1-.92l3.18-2.3c.44.75,1,.85,1.57.19.38-.3.93-.43,1-1l0,0c.46.07.86,0,1-.51h0l16.67-5.63,5.57-1.85a.66.66,0,0,1,.43.91c-9,3.34-18.59,5.46-26.8,10.87a23,23,0,0,0-1.88,1.54c-.47.15-1,.23-1,1l1.22-.78A54.11,54.11,0,0,1,313,133.19c.92.07,2-.33,2.88.94-11.09-.48-21.65.69-31,6.87a3.56,3.56,0,0,1-2.11-2.21c1.56-1.93,1.66-4.44,2.62-6.6.48.11,1,.84,1.42-.1l.05-.91,0,0c2.68-4.81,4.52-10,6.89-14.95.53-1.11,1.05-2.23,1.57-3.34Z"/><path class="cls-8" d="M274,101.24h0c2.1-2.82,5.76-2.93,9.31-.29a9.74,9.74,0,0,0,1,3.29c3.6,10,2.34,19.79-1.41,29.46l-.52-.16a5.68,5.68,0,0,1,.4-1.61c3.08-9.91,4-20-6.65-27.23A4.6,4.6,0,0,1,274,101.24Z"/><path class="cls-11" d="M237.2,117.69q-4.19,14.52-8.37,29c-3.05,10.54-6.62,20.93-8.5,31.79q-1.43,8.22-2.87,16.46l-.91-1.5c2-19.48,8.62-37.83,14-56.48,2-7,4.47-13.89,5.78-21.09q1.55-5.72,3.1-11.45c.44,0,.84.15,1,.64Z"/><path class="cls-9" d="M296.72,190.55c-1.55-3.33-5.15-4.15-8.29-6.56l14.18-3.28c.47,2.23,2.6,3.59,3,5.84Z"/><path class="cls-8" d="M171.52,126.73a26.48,26.48,0,0,0-4.85,15.77c0,.89,0,1.79,0,2.68a4,4,0,0,1-.42-.86,41.85,41.85,0,0,1-.58-15.13,27.34,27.34,0,0,0,.63-5.84c1.86-.92,4.06-1.3,5-3.54a1,1,0,0,1,1.52-.32,1.91,1.91,0,0,1,.89,1.89c-.07,1.79-1.35,3.14-1.64,4.84l.06,0C171.7,126.16,171.62,126.46,171.52,126.73Z"/><path class="cls-11" d="M113.58,108l1.21-2c8.06,4.85,14.75,11.4,21.71,17.6,2.51,2.24,4.94,4.55,7.4,6.83-.59.48-1.29.3-2,.29-4.69-4.18-9.43-8.29-14-12.57-1.72-1.6-3.58-.52-5.34-.84l-.36-1.26,2.56-.19A41.7,41.7,0,0,0,113.58,108Z"/><path class="cls-12" d="M201.86,105c-.24,2.83.56,5.77-.91,8.46l-1.18,0-4.32-4.56c-.38-1.53-1.86-2.71-1.45-4.74,2,.93,3.41,0,5-1.16C201.37,101.18,201.07,104,201.86,105Z"/><path class="cls-9" d="M287.89,164.84l-13.2,5.44-.26-.42,4.5-6.64,4.67-2.51A20.74,20.74,0,0,1,287.89,164.84Z"/><path class="cls-14" d="M154.8,148.56c-1-1.37-2.73-1.19-4.09-1.81s-2.6-.92-3.86-1.52c3.87.21,7.4,1.9,11.18,2.62a98.12,98.12,0,0,0-14.83-9.65c-2.52-1.37-5.07-2.69-7.6-4l.92-.53A148.26,148.26,0,0,1,159,146.88c.47.32.88.72,1.31,1.08-.86.43.53.93-.06,1.4C158.58,148.18,156.43,150.17,154.8,148.56Z"/><path class="cls-13" d="M168.16,100.52A165.61,165.61,0,0,0,149.4,81.73c-3-2.59-6.35-4.68-9.1-7.53a.85.85,0,0,1,1.06-.21c10.35,7.51,19.27,16.6,28.26,25.61.17.63.34,1.27.52,1.91h0l-.45,0h-.54l0,0a1.15,1.15,0,0,0-1-1Z"/><path class="cls-13" d="M282.85,133.69c3.75-9.67,5-19.45,1.41-29.46a9.74,9.74,0,0,1-1-3.29l1.45.67c1.91,6.43,4,12.84,2.48,19.7-1,1,.08,2,.08,3-1.2.67-.66,2.17-1.46,3l0,1.42,0,0-3.33,9.48C282,136.64,282.8,135.19,282.85,133.69Z"/><path class="cls-8" d="M287.23,121.31c1.53-6.86-.57-13.27-2.48-19.7a10.56,10.56,0,0,1,4.11.36c1.32,6.64-.05,13.12-1.13,19.62-.05.31-.3.23-.42,0C287.28,121.47,287.26,121.39,287.23,121.31Z"/><path class="cls-8" d="M296.72,190.55l8.9-4c1.15,1,1.18,2.45,1.29,3.83L296.7,194Z"/><path class="cls-14" d="M168.65,105a144.28,144.28,0,0,0-34-12.41,31.92,31.92,0,0,1-3.25-1.11l1.09-.73c8.2,2.58,16.62,4.48,24.56,7.86,4.14,1.76,8.41,3.28,12.18,5.85Z"/><path class="cls-14" d="M189.51,70.41c-3.4,6.91-6.83,13.82-8.61,21.38-.7,2.94-1.26,5.91-1.79,8.89-.13.73-.46,1.63.38,2.26a1,1,0,0,0,1,.55h0l-1.88,1.42c-.37-1.17.36-2.4-.54-3.38.6-8.19,3.24-15.81,6.59-23.21,1.35-3,3-5.81,4.49-8.71C189.29,69.88,189.4,70.15,189.51,70.41Z"/><path class="cls-14" d="M173.13,65c-1.22,8.5-.32,17.06-.8,25.59-1.74-8.67-1.41-17.4-.48-26.14Z"/><path class="cls-14" d="M289.82,130.28c-1.11-1.8.3-3.08.93-4.53.63.29.65.3,1-.22a143.64,143.64,0,0,0,8.39-16.15c1-2.31,2-4.63,3-6.95l.79.76c-1.91,2.52-2.51,5.63-3.78,8.44A106.07,106.07,0,0,1,289.82,130.28Z"/><path class="cls-12" d="M283.6,160.71l-4.67,2.51-.81-.44c-.52-2.29.9-3.94,1.92-5.71,1.07-.47,2.14-.89,3.19,0C284.46,158.19,284,159.45,283.6,160.71Z"/><path class="cls-13" d="M149.53,126.07l-1.31.77a98.29,98.29,0,0,0-3.84-16.5l1-.42A69.81,69.81,0,0,1,149.53,126.07Z"/><path class="cls-14" d="M287.23,121.31c0,.08,0,.16.08.24.12.27.37.35.42,0,1.08-6.5,2.45-13,1.13-19.62l1.18.3c.73,7.35-.21,14.57-1.78,21.73a4.87,4.87,0,0,1-.38.88l-.57-.62h0C287.31,123.28,286.22,122.32,287.23,121.31Z"/><path class="cls-12" d="M240.39,105.09c-.15-.49-.55-.59-1-.64a3.34,3.34,0,0,1,.55-4.09c1.06-1.25,2.43-1.49,3.62-.23s.84,2.44-.44,3.36C242.27,104.11,241.3,104.56,240.39,105.09Z"/><path class="cls-12" d="M122.22,116l.36,1.26-3.79,2.18a1.67,1.67,0,0,1-2.23-.2,2.17,2.17,0,0,1-.69-2.22,1.89,1.89,0,0,1,2-1.47C119.32,115.61,120.77,115.83,122.22,116Z"/><path class="cls-9" d="M362.94,169.26c-1.7,2.55-4.49,3.7-6.88,5.36-.72.5-1.68.67-2.14,1.54a6.25,6.25,0,0,1-1.85-2.91,42.2,42.2,0,0,0,8.43-3.17c.77-.38,1.48-1.09,2.48-.78Z"/><path class="cls-12" d="M145.4,109.92l-1,.42a38.84,38.84,0,0,1-3.3-3.24c-.75-.94-1-2.23.27-3s2.27,0,2.81,1.11A11.56,11.56,0,0,1,145.4,109.92Z"/><path class="cls-9" d="M315,180.57a13,13,0,0,1,7,5.9l-.32.33a56.15,56.15,0,0,1-8.27-4.77A1.74,1.74,0,0,1,315,180.57Z"/><path class="cls-9" d="M347.65,179.84c1.88,2.12,4,4.08,4.54,7.14a32.14,32.14,0,0,0-7.53-5.5l2.46-1.85Z"/><path class="cls-9" d="M98.89,208.85a10.68,10.68,0,0,1-7.84-2.5h8.8c0,.89-.68,1.66-.38,2.58v-.06Z"/><path class="cls-9" d="M86.14,222.07c-.82,2.94-1.63,5.88-2.45,8.82a13.13,13.13,0,0,1,.84-9.78A2,2,0,0,1,86.14,222.07Z"/><path class="cls-9" d="M327.3,172.37l6.89-3.69.34.38a38.17,38.17,0,0,1-6.11,5.74A3.37,3.37,0,0,1,327.3,172.37Z"/><path class="cls-9" d="M248.68,122.22l-1.54-7.9c2.13,2,1.91,5.19,4,7.14A3.16,3.16,0,0,1,248.68,122.22Z"/><path class="cls-14" d="M156.77,121.31l1.08,11.91a28.88,28.88,0,0,1-2.11-11.84Z"/><path class="cls-9" d="M249,72l-6.12-7.6a16.7,16.7,0,0,1,7,6.87Z"/><path class="cls-14" d="M143.41,149.48A105.65,105.65,0,0,1,132,153a1.13,1.13,0,0,1,.54-1.1c3.18-.87,6.18-2.34,9.46-2.85C142.32,149.6,142.9,149.43,143.41,149.48Z"/><path class="cls-9" d="M73.75,226.1,67.08,228a7.78,7.78,0,0,1,5.7-3.85A3,3,0,0,1,73.75,226.1Z"/><path class="cls-9" d="M260.05,80.15l3.09-9,.49.12q-1.1,4.77-2.18,9.53C260.9,80.76,260.35,80.71,260.05,80.15Z"/><path class="cls-9" d="M247.38,86.55c2.52,1.19,3.34,4,5.29,5.68a1.78,1.78,0,0,1-1.36,1c-1.39-2.14-3.06-4.09-4.12-6.44C247.25,86.68,247.32,86.62,247.38,86.55Z"/><path class="cls-14" d="M205.8,68.36c-1.74,2.07-2.79,4.79-5.52,6,1-2.41,3.27-3.87,4.48-6.11A.72.72,0,0,1,205.8,68.36Z"/><path class="cls-2" d="M347.65,179.84l-.53-.21v-.85c2.81.37,5.68.15,8.46.86-1,.26-2.05-.33-2.94.41A9.47,9.47,0,0,0,347.65,179.84Z"/><path class="cls-13" d="M166.25,123.35a27.34,27.34,0,0,1-.63,5.84c-.76-.72-.29-1.66-.45-2.48,0-.95,0-1.89.05-2.83Z"/><path class="cls-9" d="M74.24,228c-.77-.45-.25-1.24-.48-1.84C74.47,226.58,74.15,227.32,74.24,228Z"/><path class="cls-10" d="M183.49,103.24l.3-.86A.67.67,0,0,1,183.49,103.24Z"/><path class="cls-8" d="M178,214.17l1.38-1.11c.81.4,1.63.77,2.42,1.2q8,4.29,16,8.61l1.42.75a10.53,10.53,0,0,0,4,2l0,0,.48.43,6.06,4.41c-.1.12-.2.24-.29.37C198.91,225.44,188.32,220.05,178,214.17Z"/><path class="cls-8" d="M166.47,206c-.32.82-.63,1.64-.95,2.47a133.62,133.62,0,0,1-14.6-7.08l9.38,1.06Q163.39,204.26,166.47,206Z"/><path class="cls-8" d="M210.44,231.37l-1-.52.29-.36,1,.49Z"/><path class="cls-10" d="M272,197.9l4.35,1.49a12.53,12.53,0,0,0,3.51,2.14c3,3.16,6.29,6,8.54,9.8,6,10.23,6.66,20.85,2.72,31.89a3.23,3.23,0,0,1-1.79,2.22c.26-5.83-1.17-11.34-3.09-16.77a41.6,41.6,0,0,0-4.64-10.5c-.58-.91-.7-2.29-2.16-2.43-.92-3.52-4.09-5-6.52-7.07,2.22,2.31,4.37,4.69,6.49,7.1,2.78,4.31,4.59,9.07,6.44,13.82,1.17,5.19,2.6,10.34,2.44,15.73a20.34,20.34,0,0,1-4.45-5.49c-3.3-5.09-6.45-10.29-9.92-15.26-3.35-4.82-7.19-9.25-13.41-10.43a19.87,19.87,0,0,0-12.26,1.14c-1.93.87-3.91,1.62-5.87,2.42-1.41.14-2.76.09-3.59-1.33a140.18,140.18,0,0,1,12.45-10.5c4.29-1.07,8.56-2.13,13-1a61.11,61.11,0,0,1,6.85,2.54c-4.08-3-8.55-4.67-13.7-3.82a5.55,5.55,0,0,1-3.35,0l7.13-5.17c2.51-1.15,5.19-1,7.84-1.07Z"/><path class="cls-10" d="M210.76,231l-1-.49-6.06-4.41-.48-.43,0,0a15.6,15.6,0,0,0-5.31-6.43c-5.69-11.81-11.43-23.6-17-35.46-1.24-2.63-3-5.09-3.4-8.08,1.46.25,2.37,1.37,3.47,2.19,4.1,3.08,7,7.33,10.74,10.79l.64.86c.1.09,0,.52.33.14l-.34-.12a.9.9,0,0,0-.4-1.08,5.42,5.42,0,0,0-.35-.9c-6.29-10.35-14.2-19.48-21.73-28.89a2.66,2.66,0,0,0-2.75-1.28h0l-.53-.72-1.37-1.61,2.93-.29c1.2,0,1.45-.73,1.32-1.74.82-.89.46-2,.52-3,.27.16.73.27.79.48,1.47,5.36,5.47,9.06,8.7,13.25,6.07,7.9,10.85,16.59,15.78,25.2a15.18,15.18,0,0,0,2.41,3.68c-.57,3.74,1,7.18,1.5,10.78-2.47-1.59-4.13-4.15-6.72-5.58l-.49-.5-.5-.5-.49-.49-.5-.5a1.85,1.85,0,0,0-1.43-1.47c0,.94.73,1.22,1.27,1.64l.5.5.49.49.5.5.48.48c2,3,4.77,5.32,7.36,7.78.21,1.12.42,2.24.61,3.36,1,5.56,2.16,11,5.87,15.53a2.58,2.58,0,0,0,1.5,2l.82.71a2.52,2.52,0,0,0,2.18.82l1.3.85,1.12.11c.49.67,1.2.5,1.86.48,1.4.82,2.64.12,3.94-.35,3-1.09,5.73-3.17,9.12-3.28-2.93,2.24-6.48,3.18-9.77,4.68-.81.36-1.63.7-2.45,1.05A18.9,18.9,0,0,1,210.76,231Z"/><path class="cls-8" d="M228,226c-3.39.11-6.08,2.19-9.12,3.28-1.3.47-2.54,1.17-3.94.35a35,35,0,0,1,18.77-7c5-.27,9.74.84,14.59,1.43a9.26,9.26,0,0,1,.94,1.4c1,2.25.46,3.13-2,2.77-4.26-.62-8.51-1.39-12.75-2.18a19.15,19.15,0,0,0-5.6-.2l-.62.18A1.53,1.53,0,0,0,228,226Z"/><path class="cls-7" d="M238.77,216.37c.83,1.42,2.18,1.47,3.59,1.33-.09,1.15.95,1.15,1.58,1.56,1.51,1,3.08,1.85,3.77,3.66-1.06-.14-2.14-.2-3.17-.44-7.84-1.78-15.47-1.49-22.81,2.11-.71.35-1.45.84-2.36.39,5.57-4.35,12-7,18.42-9.75Z"/><path class="cls-13" d="M237.79,215.23c-6.39,2.76-12.85,5.4-18.42,9.75.91.45,1.65,0,2.36-.39,7.34-3.6,15-3.89,22.81-2.11,1,.24,2.11.3,3.17.44a1.15,1.15,0,0,1,.59,1.1c-4.85-.59-9.63-1.7-14.59-1.43a35,35,0,0,0-18.77,7c-.66,0-1.37.19-1.86-.48a24.31,24.31,0,0,1,1.79-2c6.51-6,14.27-9.69,22.6-12.37Z"/><path class="cls-8" d="M279.84,201.53a12.53,12.53,0,0,1-3.51-2.14,2.74,2.74,0,0,0,.09-.39l7.68-3.22,4.14,1.67C285.64,199.23,282.64,200.17,279.84,201.53Z"/><path class="cls-6" d="M288.27,245.32c.16-5.39-1.27-10.54-2.44-15.73l.39-.92c1.92,5.43,3.35,10.94,3.09,16.77C288.91,245.89,288.58,245.67,288.27,245.32Z"/><path class="cls-10" d="M228.3,226l.62-.18Z"/><path class="cls-10" d="M175.7,194c-2.19-3.32-5.28-5.81-8.08-8.53a82.27,82.27,0,0,0-11.32-9,47.56,47.56,0,0,0-15-6.64c-1.5-.38-3.39-.4-3.89-2.46a31.75,31.75,0,0,1,6.07.38c5.17,1,9.92,3.13,14.73,5.11a6,6,0,0,0,3.53,1.88,4.94,4.94,0,0,0-3.45-2c-.12-.8-.82-1-1.38-1.28a44.67,44.67,0,0,0-19.43-5.61c2.35-2.79,5.65-2.29,8.64-2.17,8.87.35,16.94,3.52,24.72,7.56a14.68,14.68,0,0,0,2.09.71,11.22,11.22,0,0,1,.81,1.22c5.61,11.39,11.24,22.78,16.8,34.21a10.94,10.94,0,0,1,1.41,3.9l-1.91-.93c-2.16-3.55-5.18-6.36-8-9.37a2.93,2.93,0,0,0-2-2.06C179.07,196.85,177.25,195.52,175.7,194Zm-6.53-13.81a16.34,16.34,0,0,0-3.83-3.18l-.37.51,3.7,2.68,5.33,4.36.4-.55C172.68,182.66,171.17,181.08,169.17,180.14Z"/><path class="cls-9" d="M190.07,210.28l1.91.93,0,0,.41.45a69,69,0,0,1,5.46,11.16q-8-4.31-16-8.61c-.79-.43-1.61-.8-2.42-1.2a7.44,7.44,0,0,0,.77-6.32Z"/><path class="cls-9" d="M139.12,211.11c1.21-3.07,1.86-6.43,4.71-8.54.6-.44,1.55-1.11,2.22-.31s-.22,1.51-.82,2C142.78,206.16,141.1,208.72,139.12,211.11Z"/><path class="cls-9" d="M153,189.41c1.86,2.48,3.42,4.55,5,6.62.25.34.43.76.08,1.12s-.9.19-1.3-.11A8.55,8.55,0,0,1,153,189.41Z"/><path class="cls-9" d="M166.47,206q-3.08-1.78-6.17-3.55l8.89,1.08A5,5,0,0,1,166.47,206Z"/><path class="cls-9" d="M170.65,211.34a5.85,5.85,0,0,1,4.42-4.49c.53-.14,1.2-.24,1.43.52.17.59-.26.89-.71,1.14Z"/><path class="cls-9" d="M180.13,198.85a2.93,2.93,0,0,1,2,2.06,9.4,9.4,0,0,1-.34,1.39c-.17.42-.43,1-1,.8A1.11,1.11,0,0,1,180,202C180.06,200.93,180.1,199.89,180.13,198.85Z"/><path class="cls-1" d="M98.89,208.85l.57,0-.09.37Z"/><path class="cls-3" d="M114.84,213.38l-.42.26c0-.18.08-.36.13-.55Z"/><path class="cls-7" d="M237.47,214.74c-8.33,2.68-16.09,6.38-22.6,12.37a24.31,24.31,0,0,0-1.79,2L212,229l11-14.16a29.74,29.74,0,0,0-5.5,5c-1.88,2-3.12,4.58-5.31,6.34q2.47-6.91,5-13.84c.88-2,1.77-4,2.65-6-1.52,1.11-1.78,3-3.17,4.06-.07-3.73,1.59-7.31.9-11.1a5.07,5.07,0,0,0-.63,1.78c-.42,3.42-1.76,6.77-.74,10.3-.63,3.39-2.56,6.25-3.83,9.42.22-4,.66-7.86.11-11.78-.77,5.74-1.2,11.52-2.52,17.27-.79-16.52-3.1-26.63-6.51-28,3.93,8.22,5.29,16.92,5.68,25.82,0,1.13.25,2.33-.57,3.33l-.82-.72-5-24.07-.83.17q2.16,11,4.31,21.95c-3.71-4.52-4.92-10-5.87-15.53-.19-1.12-.4-2.24-.61-3.36a4.26,4.26,0,0,0-.47-2.35c-.47-3.6-2.07-7-1.5-10.78,2.74-1,5,1.07,7.49,1.24l1.77.21,1.68,1.38a33.16,33.16,0,0,0,3,9.93l-1.92-9.31.94.39,0,0,.47.43a.87.87,0,0,0,.39.26c.25.63.34,1.58,1.06,1.67s.46-.81.58-1.3a7.67,7.67,0,0,0,1-3.43,2.64,2.64,0,0,1,2.36-.62l.91,1.5c.38,1.05,1.37,1.28,2.24,1.68a8.06,8.06,0,0,1,3.07,4.59c1.37,4.91,4.2,6.42,9.1,4.93a7,7,0,0,1,3.39-.19c.07.54.15,1.07.22,1.61-.5,1-.93,2.07-1.51,3-.94,1.61-.07,1.76,1.23,1.65C236,213,237.45,213.24,237.47,214.74Zm-14.42-6.29a7.19,7.19,0,0,0-3.07,4.13A7.84,7.84,0,0,0,223.05,208.45Z"/><path class="cls-14" d="M165.17,126.71c.16.82-.31,1.76.45,2.48a41.85,41.85,0,0,0,.58,15.13,4,4,0,0,0,.42.86l.51,1.73,0,1.13c-.47.5-.56,1.35-1.42,1.46h-.52l0,0c-1-3.34-3.16-6.09-4.55-9.23a8.28,8.28,0,0,1-1-3.49q2.81,5,5.6,10.1l.6-.15A39.45,39.45,0,0,1,165.17,126.71Zm.76,20.89-.09.19H166Z"/><path class="cls-13" d="M207,194.1l-1.77-.21.63-12.78,1.47,4.12Z"/><path class="cls-8" d="M167.1,148l0-1.13,2.37,2.67c.13.25.24.52.61.44l-.08,0c-.06,1,.3,2.13-.52,3C167.81,151.82,167.91,149.71,167.1,148Z"/><path class="cls-10" d="M170.11,150c-.37.08-.48-.19-.61-.44Z"/><path class="cls-1" d="M171.52,126.73c.1-.27.18-.57.57-.53C172.08,126.57,171.82,126.68,171.52,126.73Z"/><path class="cls-6" d="M197.8,222.87a69,69,0,0,0-5.46-11.16l-.41-.45,0,0a10.94,10.94,0,0,0-1.41-3.9c-5.56-11.43-11.19-22.82-16.8-34.21a11.22,11.22,0,0,0-.81-1.22c-2.58-5.89-6.14-11.24-9.21-16.85l1.51.06,1.37,1.62c.06.32.13.64.53.71l0,0A175,175,0,0,0,177,175.24l.53.47h0c.43,3,2.16,5.45,3.4,8.08,5.59,11.86,11.33,23.65,17,35.47.5,1.43,1.36,2.76,1.27,4.37Z"/><path class="cls-11" d="M158.24,172.76c-4.81-2-9.56-4.11-14.73-5.11a31.75,31.75,0,0,0-6.07-.38c-.63-.53-.43-1,.07-1.49a44.67,44.67,0,0,1,19.43,5.61c.56.3,1.26.48,1.38,1.28Z"/><path class="cls-15" d="M274,101.24a4.6,4.6,0,0,0,2.11,3.45c10.61,7.26,9.73,17.32,6.65,27.23a5.68,5.68,0,0,0-.4,1.61c-1.9,2.48-3.05,5.38-4.5,8.1a37.83,37.83,0,0,1-5.37,7.88c-6.54-5.28-12.13-11.61-18.6-17a26.91,26.91,0,0,0,.7-3c.23-1.89.92-.78,1.54-.29.36.61.59,1.34,1.39,1.55a6.25,6.25,0,0,0,8.75-1.14,7.33,7.33,0,0,0,.05-9.31c-2.28-2.5-5.43-2.29-9.6.76.69-4.76,1.36-9.35,2-13.94.07-.5.39-.67.83-.73a2.86,2.86,0,0,0,1.88,1.56c4.12,1.9,8.42.34,11-4C273,103.08,273.45,102.15,274,101.24Z"/><path class="cls-9" d="M253.86,132.54c6.47,5.36,12.06,11.69,18.6,17-7,8.9-14.28,17.59-21,26.72-3.73,5.08-7.34,10.24-10.95,15.49,1.53-10,1.44-20,2.3-30a192.84,192.84,0,0,0,8.89-22.87Q252.77,135.67,253.86,132.54Zm2,16.71a2.52,2.52,0,0,0,.35.3c-1.32,2.07-2.61,4.16-4,6.21-1,1.52-.69,2.39,1.11,2.78a9,9,0,0,0,8.14-2.39c2.34-2.06,2.71-5.61,1.14-8.86-1.46-3-4-4.59-6.82-4.22-4.29.56-7.89,6.44-6.66,10.73.37,1.32.75,1.18,1.58.4C252.5,152.58,253.9,150.61,255.89,149.25Z"/><path class="cls-9" d="M235.48,207.59c-.07-.54-.15-1.07-.22-1.61a28.25,28.25,0,0,0,2.81-6.12,9.7,9.7,0,0,1,2.75-3.88c1.81-.53,1.72,1.39,2.79,2.11,1.63-2,2.08-4.79,4.08-6.64-1.5,3.81-.49,8.65-5.19,11.15C240,203.94,237.81,205.91,235.48,207.59Z"/><path class="cls-8" d="M282.51,138.19l3.33-9.48c.25,1.22-.41,2.3-.48,3.48-1,2.16-1.06,4.67-2.62,6.6C282.66,138.59,282.58,138.39,282.51,138.19Z"/><path class="cls-9" d="M277,179.24c-1.55,3.78-3,7.4-7.49,9s-9,4-13.39,6.13c-1.47.7-2.3.84-2-1.27a5.48,5.48,0,0,0-2.21-5.64c-1.08-.79-.59-1.25.2-1.81,3.69-2.6,7.28-5.33,11.05-7.8,2.2-1.44,4.94-.82,7.4-1.28l1.46.64a7.49,7.49,0,0,0-1.54,6c.11.55.23,1.19.88,1.33s.82-.43,1.17-.75c1.55-1.45,2.54-3.43,4.35-4.63Z"/><path class="cls-9" d="M270.36,175.69H267l-.11-.41c3.83-1.8,7.64-3.63,11.5-5.37a2.84,2.84,0,0,1,1.93,0c3.77,1.26,7.63.93,11.48.82l3.87,1.4,5.09,6.69-19,4.92c1.26-2.91,2.22-5.41-.55-7.43-.25-1.3-.4-2.93-2-3C276.05,173.1,272.87,173.28,270.36,175.69Z"/><path class="cls-9" d="M237.47,214.74c0-1.5-1.43-1.71-2.27-2.46C241,206.37,248,202,255.12,198c1.85-1,3.75-2,5.86-3.07.08,1.33.14,2.43.2,3.53l-7.13,5.16c-.94.76-2.2,1.1-2.83,2.24a140.18,140.18,0,0,0-12.45,10.5l-1-1.14Z"/><path class="cls-15" d="M300.77,178.81l-5.09-6.69c.92-.39,2.25-.51,1.78-2-.37-1.17-1.44-1.09-2.43-1-.71.1-1.43.18-2.15.27-1.08-1.08-2.15-2.17-3.23-3.26l3.07-1.46a47.52,47.52,0,0,0,14.23.74c-3.42,1.86-4.85,5.23-6.39,8.49a2,2,0,0,0,1,2.88,2.11,2.11,0,0,0,1.81.93C302.93,179.1,301.66,178.49,300.77,178.81Z"/><path class="cls-9" d="M284.1,195.78,276.42,199c0-4.07-2.32-6.43-6.7-8l11.86-4.48.64.19C280,190.5,282.43,193,284.1,195.78Z"/><path class="cls-12" d="M270.36,175.69c2.51-2.41,5.69-2.59,8.85-2.41,1.57.09,1.72,1.72,2,3-.88,1.95-2.49,2.13-4.32,1.78l-4.81-.88-1.46-.64C270.52,176.27,270.44,176,270.36,175.69Z"/><path class="cls-9" d="M289.65,166.17c1.08,1.09,2.15,2.18,3.23,3.26l-.63.43c-3.36-.47-6.86.56-10.81-1.07A49.13,49.13,0,0,1,289.65,166.17Z"/><path class="cls-9" d="M303.41,177.75a2.11,2.11,0,0,1-1.81-.93,52.87,52.87,0,0,1,7.12-7C307.76,173,305.68,175.46,303.41,177.75Z"/><path class="cls-9" d="M272,197.9l-3-.5c-1.13-.64-2.24-1.31-3.39-1.92-.53-.29-1.15-.55-.92-1.23s1-.71,1.65-.51A11.73,11.73,0,0,1,272,197.9Z"/><path class="cls-12" d="M292.25,169.86l.63-.43c.72-.09,1.44-.17,2.15-.27,1-.14,2.06-.22,2.43,1,.47,1.5-.86,1.62-1.78,2l-3.87-1.4Z"/><path class="cls-9" d="M290.28,191.61a26.68,26.68,0,0,1-6-2.69c-.48-.25-1-.82-.67-1.4s1.13-.54,1.71-.19A13.14,13.14,0,0,1,290.28,191.61Z"/><path class="cls-1" d="M356.5,178.15l1,0c.11.29.24.72-.12.76A.86.86,0,0,1,356.5,178.15Z"/><path class="cls-9" d="M304.68,177.85l.06.13a.79.79,0,0,1-.22.05s0-.09-.06-.13Z"/><path class="cls-9" d="M335.26,168.28c-.05.45-.37.63-.74.78l-.33-.38a.93.93,0,0,1,1.08-.39Z"/><path class="cls-9" d="M335.27,168.29l.22-.27c0,.06,0,.15,0,.17a.73.73,0,0,1-.22.09Z"/><path class="cls-9" d="M276.91,179.15l.24-.31c.2.23.13.36-.16.4Z"/><path class="cls-9" d="M261.42,108a2.86,2.86,0,0,1-1.88-1.56c1.74-2.56,3.29-5.29,6.17-6.83C264.76,102.67,262.48,105,261.42,108Z"/><path class="cls-9" d="M257.49,130.78c-.8-.21-1-.94-1.39-1.55l3.84-3.16c.07.08.15.15.23.23Z"/><path class="cls-1" d="M257.13,76.27c.88.26.49,1,.53,1.53C256.78,77.53,257.15,76.83,257.13,76.27Z"/><path class="cls-9" d="M259.94,126.07l.69-.3,0,0-.42.56C260.09,126.22,260,126.15,259.94,126.07Z"/><path class="cls-9" d="M260.63,125.77l.15-.27s0,.11,0,.13a1.08,1.08,0,0,1-.18.11Z"/><path class="cls-13" d="M178.09,101.53c.9,1,.17,2.21.54,3.38l1.88-1.42.59.1q-.75,2.35-1.49,4.73a5.45,5.45,0,0,1-4.11,1.51c-2-2.06-4.54-3.27-6.85-4.87l.61-.54c.47.32.94.64.81-.37,1.08-.42,1.92-.9.45-1.93a2.17,2.17,0,0,1-.4-.6h0c2.34.7,2.07-1.18,2.42-2.45,1.29,2.47,2.06,5.18,3.85,7.85-.94-8.66-1.36-17,0-25.26a75.54,75.54,0,0,0,1.28,22.07Z"/><path class="cls-14" d="M172.56,99.06c-.35,1.27-.08,3.15-2.42,2.45-.18-.64-.35-1.28-.52-1.91-1.44-3.86-4-7.12-5.89-10.71-1-1.91-2.25-3.73-2.59-6l10,16.48.58-.23q-2.53-7.49-5.09-15l.64-.23Z"/><path class="cls-6" d="M213.15,197.52c-.12.49.15,1.38-.58,1.3s-.81-1-1.06-1.67c.07-7.32,0-14.64.24-22,.35-9.83,1-19.64,2.26-29.4.74-5.51,1-11.08,1.53-16.63.84-3.89.58-7.92,1.56-11.79a4.23,4.23,0,0,1,2.45.43c-.26,3.51-1.77,6.8-1.86,10.35-.44,2.8-.86,5.6-1.34,8.39-.13.77-.43,1.49.76,1.56-2.85,7-2.41,14.41-3,21.71a310.53,310.53,0,0,0-1,31.26Q213.13,194.3,213.15,197.52Z"/><path class="cls-5" d="M214.14,159.82c.56-7.3.12-14.73,3-21.71h0a2.1,2.1,0,0,0,2-2l0,0H220A223.41,223.41,0,0,1,214.14,159.82Z"/><path class="cls-5" d="M217.11,138.11c-1.19-.07-.89-.79-.76-1.56.48-2.79.9-5.59,1.34-8.39,3.42.21,3.77.61,3.92,4.57-.05,1.22-1.8,1.55-1.54,2.93h0a.74.74,0,0,0-1,.49l0,0a4.63,4.63,0,0,0-2,2Z"/><path class="cls-12" d="M225.52,129.55c-.08-2,1.22-3.35,2.52-4.59s2.41-.91,3.36.38a2,2,0,0,1-.65,3.16,13.33,13.33,0,0,1-4.32,1.69Z"/><path class="cls-6" d="M225.52,129.55l.91.64c-2.07,1.88-3.88,4.06-6.36,5.47-.26-1.38,1.49-1.71,1.54-2.93Z"/><path class="cls-5" d="M213.15,197.52q0-3.21,0-6.44c.87.82.51,2.09,1.08,3A7.67,7.67,0,0,1,213.15,197.52Z"/><path class="cls-6" d="M219.06,136.14a.74.74,0,0,1,1-.49l-.09.5Z"/><path class="cls-13" d="M207.71,177.18c-.65-.7-.4-1.57-.41-2.36,0-7.09-.17-14.18,0-21.26A34.08,34.08,0,0,1,211,138.45c-2.39,9-2.91,18.18-2.89,27.41C207.21,169.61,208,173.41,207.71,177.18Z"/><path class="cls-11" d="M199.77,113.45l1.18,0c1.93,7.22,3.78,14.44,4.34,21.93a13.33,13.33,0,0,0,.45,1.92c-.29.61-.59,1.21-.89,1.82-1.12-8-2.15-16-4.86-23.7A8.8,8.8,0,0,1,199.77,113.45Z"/><path class="cls-9" d="M207,194.1l.33-8.87c.28.47.55.94.82,1.41l1.5,3.84c.16,2,1.33,3.9,1.06,6l-.94-.39-1.09-.62Z"/><path class="cls-13" d="M197.74,135.67l5.63,7.86c-.06.33-.12.66-.19,1a63.26,63.26,0,0,1-5.91-8.44Z"/><path class="cls-4" d="M207.71,177.18c.26-3.77-.5-7.57.4-11.32v14C207.41,178.94,207.8,178,207.71,177.18Z"/><path class="cls-11" d="M209.62,190.48l-1.5-3.84c.26-.73-.28-1.65.76-2.46C209.2,186.4,209.83,188.37,209.62,190.48Z"/><path class="cls-9" d="M211.12,196.89l-.47-.43Z"/><path class="cls-4" d="M244.05,142.4l-3.81-8.05c-.28,2.57.62,4.84,1.22,7.16.39,1.54-.17,1.64-1.37,1.61a6.2,6.2,0,0,1-5.64-5c-.75-3.61.92-7.19,3.93-8.47,2.53-1.08,5-.25,6.87,2.24C247.43,134.8,247.54,140.1,244.05,142.4Z"/><path class="cls-12" d="M197.74,135.67l-.47.4c-1-.88-1.91-1.75-2.86-2.64a2,2,0,0,1-.45-2.26,1.39,1.39,0,0,1,1.56-.93,1.9,1.9,0,0,1,1.66,1.59C197.42,133.1,198,134.33,197.74,135.67Z"/><path class="cls-14" d="M170.12,101.52a2.17,2.17,0,0,0,.4.6c1.47,1,.63,1.51-.45,1.93L156.68,93.76c2.36.3,3.77,2,5.59,3.11,2,1.18,3.33,3.4,5.89,3.65h0c-.19.86.28,1.06,1,1l0,0,.15.35.39-.35Z"/><path class="cls-6" d="M167.1,148c.81,1.67.71,3.78,2.41,5,.13,1-.12,1.74-1.32,1.74-7.73-4.24-15.78-7-24.78-5.32-.51,0-1.09.12-1.44-.44a24.31,24.31,0,0,1,12.83-.48c1.63,1.61,3.78-.38,5.45.8.59-.47-.8-1,.06-1.4l1.41.56,0,0A1,1,0,0,0,163,149a4.46,4.46,0,0,0,.16.78c.64,0,.51-.57.62-1,.48.22.75.87,1.42.68l0,0c-.11.34-.07.62.34.63.06,0,.12-.4.18-.62C166.54,149.39,166.63,148.54,167.1,148Z"/><path class="cls-14" d="M163.76,148.83c-.11.39,0,1-.62,1A4.46,4.46,0,0,1,163,149c-.4-.24-.71-.69-1.28-.51l0,0c-.7-2.29-2.85-3.46-4.08-5.34l.34-.38A29.77,29.77,0,0,1,163.76,148.83Z"/><path class="cls-14" d="M153.19,131.34l3.16,5.06A6.82,6.82,0,0,1,153.19,131.34Z"/><path class="cls-14" d="M156.2,141.31a6,6,0,0,1-2.78-3.18C154.49,139.05,155.71,139.82,156.2,141.31Z"/><path class="cls-14" d="M157.64,143.18l-.19-.57.53.2C157.86,142.93,157.75,143.06,157.64,143.18Z"/><path class="cls-14" d="M295.6,128.12A68,68,0,0,1,306.76,119c-3.47,3.31-6.78,6.79-10.79,9.49Z"/><path class="cls-14" d="M296,128.48c-.26,1.12-2,1.29-1.74,2.72h0c-.55-.26-.86,0-1,.51l0,0-.89.14-.38-.4a12.78,12.78,0,0,1,3.61-3.3Z"/><path class="cls-14" d="M292.26,132.71c-.61.66-1.13.56-1.57-.19l1.3-1.1.38.4C292.33,132.12,291.57,132.32,292.26,132.71Z"/><path class="cls-15" d="M268.47,309.24c3.85.13,5.37,2.16,4.85,6.2-.41,3.18-2.79,4.84-5.93,4.27-1.09-.19-1-.86-1-1.59,0-2.22.11-4.44,0-6.65C266.2,309.59,266.83,308.86,268.47,309.24Z"/><path class="cls-15" d="M294.19,322c0,2.63.11,5.27,0,7.9-.23,4.54-2.53,4.83-6.39,4.9-1,0-1-.67-1-1.36,0-7.58,0-15.15,0-22.73,0-1.08.4-1.36,1.44-1.42,4.25-.25,5.86,1.19,6,5.54,0,.25,0,.49,0,.74V322Z"/><path class="cls-15" d="M196.83,322.1c0-3.63.06-7.25,0-10.87,0-1.46.3-2,1.9-2,4,.09,5.45,1.29,5.52,5.26q.12,7.41,0,14.83c-.06,3.95-1.25,5.07-5.12,5.44-1.64.16-2.38-.17-2.3-2C196.94,329.19,196.83,325.64,196.83,322.1Z"/><path class="cls-15" d="M250,313.65c.7,3.63,1.41,7.24,2.06,10.87.12.66.63,1.76-.25,2a9.59,9.59,0,0,1-4.13,0c-.85-.2-.23-1.27-.11-1.94.64-3.61,1.31-7.21,2-10.82Z"/><path class="cls-14" d="M181.1,103.59l-.59-.1h0l-.94-1a85.5,85.5,0,0,1,6.92-18.83q-2.81,8.67-5.6,17.34a110.21,110.21,0,0,1,12.52-18.78c2.24-2.68,4.08-5.74,6.88-8,.41.78-.17,1.25-.57,1.72a142,142,0,0,0-18.17,26.56c-1.13-.17-.27.67-.5,1Z"/><path class="cls-13" d="M179.57,102.52l.94,1a1,1,0,0,1-1-.55A.88.88,0,0,1,179.57,102.52Z"/><path class="cls-4" d="M119.24,184.59c6.36-2.45,10-.33,11.82,6.88-1.8,4.59-1.8,4.59-6,1.67a13.5,13.5,0,0,0-2.7-1.56c.52,1.79,1.86,3,2.81,4.43.35.53,1.19,1,.84,1.65s-1.26.67-2,.65a7.84,7.84,0,0,1-7.3-4.93c-1.1-3.06-.63-5.81,2-8A4.65,4.65,0,0,0,119.24,184.59Z"/><path class="cls-9" d="M247.19,86.74c-.1-.1-.3-.27-.28-.3.23-.32.35-.08.47.11C247.32,86.62,247.25,86.68,247.19,86.74Z"/><path class="cls-14" d="M285.36,132.19c.07-1.18.73-2.26.48-3.48l0,0c.67-.45.73-.93,0-1.42.8-.87.26-2.37,1.46-3h0c0,.52-.1,1.09.43,1.46-.13,1.86-1.19,3.56-.94,5.48l0,0c-.67.26-.61.57-.05.91C286.36,133,285.84,132.3,285.36,132.19Z"/><path class="cls-14" d="M295.77,113.49l-.51-.58a20.79,20.79,0,0,1,2.82-5.63A18.64,18.64,0,0,1,295.77,113.49Z"/><path class="cls-13" d="M287.74,125.72c-.53-.37-.4-.94-.43-1.46l.57.62C287.83,125.16,287.78,125.44,287.74,125.72Z"/><path class="cls-9" d="M363,169.3l.14-.29c0,.05,0,.12,0,.14a.67.67,0,0,1-.18.11Z"/><path class="cls-13" d="M181.05,103.54c.23-.29-.63-1.13.5-1C181.5,103,181.46,103.34,181.05,103.54Z"/><path class="cls-9" d="M322,186.47c.08.13.26.3.23.36-.18.3-.37.13-.54,0Z"/><path class="cls-1" d="M301.88,154.74l-.58,0,.23-.46Z"/><path class="cls-7" d="M287.51,134.82c-.21.4-.33.91-1,.92-.11-.61.33-.85.71-1.13Z"/><path class="cls-7" d="M292.26,132.71c-.69-.39.07-.59.11-.89l.89-.14C293.19,132.28,292.64,132.41,292.26,132.71Z"/><path class="cls-8" d="M288.46,137.3l-1.22.78c0-.81.51-.89,1-1Z"/><path class="cls-7" d="M293.23,131.7c.15-.54.46-.77,1-.51C294.09,131.74,293.69,131.77,293.23,131.7Z"/><path class="cls-7" d="M286.78,132.09c-.56-.34-.62-.65.05-.91Z"/><path class="cls-7" d="M169.16,101.52c-.73,0-1.2-.15-1-1A1.15,1.15,0,0,1,169.16,101.52Z"/><path class="cls-7" d="M169.67,101.5l-.39.35-.15-.35Z"/><path class="cls-8" d="M285.85,127.31c.69.49.63,1,0,1.42Z"/><path class="cls-9" d="M199.22,223.62c.09-1.61-.77-2.94-1.27-4.37a15.51,15.51,0,0,1,5.31,6.42A10.53,10.53,0,0,1,199.22,223.62Z"/><path class="cls-9" d="M203.23,225.65l.48.43Z"/><path class="cls-13" d="M251.22,205.87c.63-1.14,1.89-1.48,2.83-2.24a5.48,5.48,0,0,0,3.35,0c5.15-.85,9.62.81,13.7,3.82a61.11,61.11,0,0,0-6.85-2.54C259.78,203.74,255.51,204.8,251.22,205.87Z"/><path class="cls-13" d="M286.22,228.67l-.39.92c-1.85-4.75-3.66-9.51-6.44-13.82l0,0c1.46.14,1.58,1.52,2.16,2.43A41.6,41.6,0,0,1,286.22,228.67Z"/><path class="cls-13" d="M279.39,215.77c-2.12-2.41-4.27-4.79-6.49-7.1,2.43,2.11,5.6,3.55,6.52,7.07Z"/><path class="cls-9" d="M177,175.24a175,175,0,0,1-9.87-17.84,2.69,2.69,0,0,1,2.75,1.29c7.53,9.41,15.44,18.54,21.73,28.89a5.42,5.42,0,0,1,.35.9l-.23.2C188,185.22,185.1,181,181,177.89c-1.1-.82-2-1.94-3.47-2.19h0C177.52,175.38,177.31,175.26,177,175.24Z"/><path class="cls-13" d="M217.11,212.32q-2.49,6.92-5,13.84v0l-.53.51-1,1.51a2.52,2.52,0,0,1-2.18-.82c.82-1,.62-2.19.57-3.32-.39-8.9-1.75-17.6-5.68-25.82,3.41,1.41,5.72,11.52,6.51,28,1.32-5.75,1.75-11.53,2.52-17.27.55,3.92.11,7.82-.11,11.78,1.27-3.17,3.2-6,3.83-9.42h.53A1.05,1.05,0,0,1,217.11,212.32Z"/><path class="cls-14" d="M206.16,224.67q-2.16-11-4.31-21.95l.83-.17,5,24.07A2.58,2.58,0,0,1,206.16,224.67Z"/><path class="cls-14" d="M210.66,228.15l1-1.51c.83.5.5-.19.53-.51v0c2.19-1.76,3.43-4.31,5.31-6.34a29.74,29.74,0,0,1,5.5-5L212,229Z"/><path class="cls-6" d="M199.21,203.43a4.26,4.26,0,0,1,.47,2.35c-2.59-2.46-5.35-4.76-7.36-7.78l.17-.16C195.08,199.28,196.74,201.84,199.21,203.43Z"/><path class="cls-6" d="M190.35,196c-.54-.42-1.26-.7-1.27-1.64a1.85,1.85,0,0,1,1.43,1.47Z"/><path class="cls-9" d="M192.38,189.54l-.64-.86.23-.2a.9.9,0,0,1,.4,1.08Z"/><path class="cls-9" d="M192.37,189.56l.34.12c-.29.38-.23-.05-.33-.14Z"/><path class="cls-9" d="M167.16,157.42c-.4-.07-.47-.39-.53-.71C166.81,156.94,167,157.18,167.16,157.42Z"/><path class="cls-6" d="M190.85,196.53l-.5-.5.16-.17.5.5Z"/><path class="cls-6" d="M191.34,197l-.49-.49.16-.17.49.49Z"/><path class="cls-6" d="M191.5,196.85l.5.5-.16.17-.5-.5Z"/><path class="cls-6" d="M192,197.35l.49.5-.17.15-.48-.48Z"/><path class="cls-14" d="M169.17,180.14c2,.94,3.51,2.52,5.23,3.82l-.4.55-5.33-4.36Z"/><path class="cls-13" d="M169.17,180.14h-.5l-3.7-2.68.37-.51A16.34,16.34,0,0,1,169.17,180.14Z"/><path class="cls-11" d="M158.32,172.67a4.94,4.94,0,0,1,3.45,2,6,6,0,0,1-3.53-1.88Z"/><path class="cls-10" d="M191.93,211.26l.41.45Z"/><path class="cls-14" d="M216.12,211.32c-1-3.53.32-6.88.74-10.3a5.07,5.07,0,0,1,.63-1.78c.69,3.79-1,7.37-.9,11.1l0,0c-.58.13-.57.56-.5,1Z"/><path class="cls-14" d="M208.65,195.48l1.09.62,1.92,9.31A33.16,33.16,0,0,1,208.65,195.48Z"/><path class="cls-14" d="M217.11,212.32a1.05,1.05,0,0,0-.46-1c0-.34,0-.68,0-1l0,0c1.39-1.1,1.65-3,3.17-4.06C218.88,208.29,218,210.3,217.11,212.32Z"/><path class="cls-14" d="M223.05,208.45a7.84,7.84,0,0,1-3.07,4.13A7.19,7.19,0,0,1,223.05,208.45Z"/><path class="cls-7" d="M165.68,149.5c-.06.22-.12.62-.18.62-.41,0-.45-.29-.34-.63Z"/><polygon class="cls-7" points="165.93 147.6 165.99 147.8 165.84 147.79 165.93 147.6"/><path class="cls-10" d="M177,175.24c.3,0,.51.14.53.47Z"/><path class="cls-4" d="M255.89,149.25c-2,1.36-3.39,3.33-5.12,4.95-.83.78-1.21.92-1.58-.4-1.23-4.29,2.37-10.17,6.66-10.73,2.82-.37,5.36,1.21,6.82,4.22,1.57,3.25,1.2,6.8-1.14,8.86a9,9,0,0,1-8.14,2.39c-1.8-.39-2.12-1.26-1.11-2.78,1.35-2,2.64-4.14,4-6.21.3-.18.54-.53.25-.74S256,149,255.89,149.25Z"/><path class="cls-6" d="M217.09,138.12a4.63,4.63,0,0,1,2-2A2.1,2.1,0,0,1,217.09,138.12Z"/><path class="cls-7" d="M161.7,148.5c.57-.18.88.27,1.28.51A1,1,0,0,1,161.7,148.5Z"/><path class="cls-7" d="M216.61,210.31c0,.34,0,.68,0,1h-.54C216,210.87,216,210.44,216.61,210.31Z"/><path class="cls-7" d="M212.16,226.13c0,.32.3,1-.53.51Z"/><path class="cls-9" d="M255.89,149.25c.15-.23.24-.72.6-.44s.05.56-.25.74A2.52,2.52,0,0,1,255.89,149.25Z"/></g></g></svg>